<svg xmlns="http://www.w3.org/2000/svg" xmlns:xlink="http://www.w3.org/1999/xlink" version="1.0" x="0px" y="0px" viewBox="0 0 100 125" enable-background="new 0 0 100 100" xml:space="preserve"><path d="M25,60c-8.284,0-15,6.716-15,15c0,8.288,6.716,15,15,15s15-6.712,15-15C40,66.716,33.284,60,25,60z M25,83.333  c-4.597,0-8.333-3.74-8.333-8.333s3.736-8.333,8.333-8.333s8.333,3.74,8.333,8.333S29.597,83.333,25,83.333z"/><path d="M63.333,10c-5.523,0.001-10,4.473-10,10c0,5.521,4.477,10,9.997,10s10-4.478,10-10.001C73.33,14.474,68.854,9.997,63.333,10  z M63.333,23.332c-1.842,0-3.336-1.494-3.333-3.333c0-1.841,1.491-3.333,3.333-3.333c1.84,0,3.334,1.493,3.334,3.333  C66.663,21.837,65.173,23.332,63.333,23.332z"/><path d="M75,60c-0.234,0-0.456,0.059-0.687,0.068L71.517,50H80v-6.667H62.761L49.023,29.596l-17.07,17.071  c-1.296,1.295-1.296,3.418,0,4.713l14.714,14.714V80h6.666V66.667c0-1.83-1.061-4.395-2.356-5.69l-11.95-11.956l9.997-9.997  l8.62,8.62C58.938,48.938,61.497,50,63.333,50h1.264l3.294,11.868C63.213,64.407,60,69.304,60,75c0,8.288,6.716,15,15,15  s15-6.712,15-15C90,66.716,83.284,60,75,60z M75,83.333c-4.593,0-8.333-3.74-8.333-8.333c0-2.598,1.221-4.893,3.089-6.423  l2.031,7.314l6.426-1.783l-2.034-7.321c4.033,0.579,7.154,4.023,7.154,8.213C83.333,79.593,79.593,83.333,75,83.333z"/></svg>