<svg id="Layer_1" data-name="Layer 1" xmlns="http://www.w3.org/2000/svg" viewBox="0 0 841.89 595.28"><defs><style>.cls-1{fill:#f0f5d8;}.cls-2{fill:none;stroke:#58595b;stroke-miterlimit:10;}.cls-3{fill:#58595b;}.cls-4{fill:#010101;}.cls-5{font-size:12px;fill:#231f20;font-family:MyriadPro-Regular, Myriad Pro;}.cls-6{letter-spacing:0.01em;}.cls-7{letter-spacing:-0.01em;}.cls-8{letter-spacing:0em;}.cls-9{letter-spacing:0.02em;}.cls-10{letter-spacing:-0.01em;}.cls-11{letter-spacing:0em;}.cls-12{letter-spacing:-0.01em;}.cls-13{letter-spacing:0.01em;}.cls-14{letter-spacing:0.02em;}.cls-15{letter-spacing:-0.01em;}.cls-16{letter-spacing:-0.01em;}.cls-17{letter-spacing:-0.01em;}.cls-18{letter-spacing:-0.01em;}.cls-19{fill:#39b54a;}</style></defs><title>Artboard 4</title><rect class="cls-1" y="0.28" width="841.89" height="594.99"/><line class="cls-2" x1="436.11" y1="290.55" x2="436.11" y2="239.14"/><polygon class="cls-3" points="439.81 287.75 436.11 289.32 432.41 287.75 436.11 296.52 439.81 287.75"/><polygon class="cls-3" points="439.81 241.95 436.11 240.38 432.41 241.95 436.11 233.18 439.81 241.95"/><line class="cls-2" x1="436.11" y1="430.42" x2="436.11" y2="379.01"/><polygon class="cls-3" points="439.81 427.61 436.11 429.19 432.41 427.61 436.11 436.39 439.81 427.61"/><polygon class="cls-3" points="439.81 381.82 436.11 380.25 432.41 381.82 436.11 373.04 439.81 381.82"/><path class="cls-4" d="M461.92,178.68a1,1,0,0,0,.52-.87v-6.93a1,1,0,0,0-.52-.87l-8.4-4.57a1,1,0,0,0-.48-.12,1,1,0,0,0-1,1.26,1,1,0,0,0,.47.59l.41.23L448.12,170a1,1,0,0,0-.53.87v6.05l-3.86.46-5.64-3V172l5.92-3.18a1,1,0,0,0,.52-.88v-5.24l1.11.63a1.05,1.05,0,0,0,.49.13,1,1,0,0,0,.86-.51,1,1,0,0,0-.38-1.35l-9-4.92a1,1,0,0,0-.94,0l-9,4.92a1,1,0,1,0,1,1.73l1.12-.63v5.24a1,1,0,0,0,.52.88l5.91,3.18v2.38l-5.64,3-3.86-.46v-6.05a1,1,0,0,0-.52-.87l-4.85-2.61.41-.23a1,1,0,0,0,.47-.59,1,1,0,0,0-.09-.76,1,1,0,0,0-1.34-.38L412.28,170a1,1,0,0,0-.52.87v6.93a1,1,0,0,0,.52.87l5.92,3.19v.7l-5.92,3.18a1,1,0,0,0-.52.87v6.93a1,1,0,0,0,.52.87l8.21,4.35a.93.93,0,0,0,.44.11,1,1,0,0,0,.88-.55,1,1,0,0,0-.44-1.33l0,0,4.76-2.56a1,1,0,0,0,.52-.87v-6.16l3.93-1,5.57,3v2.38S430.2,195,430.2,195a1,1,0,0,0-.52.87v5.33l-1.23-.62a.92.92,0,0,0-.44-.1,1,1,0,0,0-.94,1.3,1,1,0,0,0,.5.57l9.06,4.78a1,1,0,0,0,.47.12,1,1,0,0,0,.47-.12l9.06-4.77a1,1,0,0,0,.5-.58,1,1,0,0,0-.05-.75,1,1,0,0,0-.89-.55,1,1,0,0,0-.44.1l-1.22.62v-5.33A1,1,0,0,0,444,195l-5.92-3.19v-2.38l5.58-3,3.92,1v6.16a1,1,0,0,0,.53.87l4.75,2.56,0,0a1,1,0,1,0,.89,1.77l8.2-4.35a1,1,0,0,0,.52-.87v-6.93a1,1,0,0,0-.52-.87L456,182.57v-.7Zm-13.46,6.89-3.93-1v-5.28l3.86-.46,5.64,3v.7ZM454,174.94v4.68l-4.46-2.4v-4.68Zm2,4.68v-4.68l4.45-2.4v4.68Zm-1-11.08,4.35,2.34L455,173.22l-4.35-2.34Zm-16.93,1.18V165l4.46-2.4v4.68Zm-1-11.08,4.35,2.34-4.35,2.35L432.76,161Zm-5.44,4,4.45,2.4v4.68l-4.45-2.4Zm5.44,13.43,4.35,2.34-4.35,2.34-4.34-2.34Zm-11.35,9.5-5.57-3v-.7l5.63-3,3.87.46v5.28Zm-1.12-13v4.68l-4.45,2.4v-4.68Zm-5.44-4,4.34,2.34-4.34,2.34-4.35-2.34Zm-5.45,4,4.46,2.4v4.68l-4.46-2.4Zm5.45,11.74,4.34,2.34L419.19,189l-4.35-2.34Zm-5.45,4,4.46,2.4v4.68l-4.46-2.4Zm6.44,7.08v-4.68l4.45-2.4V193Zm11.48-15.3,4.45,2.4v4.68l-4.45-2.4Zm4.45,19.82v4.68l-4.45-2.39v-4.68Zm2,4.68v-4.68l4.46-2.39v4.68Zm-1-6.39-4.34-2.34,4.34-2.34,4.35,2.34Zm1-11v-4.68l4.46-2.4v4.68Zm11.48,1.14,4.46,2.4v4.68l-4.46-2.4Zm6.44,7.08v-4.68l4.45-2.4V193Zm-1-6.4-4.35-2.34,4.35-2.34,4.35,2.34Z"/><path class="cls-4" d="M449.1,165.24a1,1,0,0,0,.48.12,1,1,0,0,0,.86-.5,1,1,0,0,0-.38-1.35,1,1,0,0,0-1.43,1.13A1,1,0,0,0,449.1,165.24Z"/><path class="cls-4" d="M449.73,198.67a1,1,0,0,0-.44.1,1,1,0,0,0,.44,1.88,1,1,0,0,0,.45-.11,1,1,0,0,0,.49-.57.93.93,0,0,0-.05-.75A1,1,0,0,0,449.73,198.67Z"/><path class="cls-4" d="M424.62,165.36a1,1,0,0,0,1-.72,1,1,0,0,0-.09-.75,1,1,0,0,0-1.35-.38,1,1,0,0,0-.47.59,1,1,0,0,0,.09.76A1,1,0,0,0,424.62,165.36Z"/><path class="cls-4" d="M424.91,198.77a1,1,0,0,0-.44-.1,1,1,0,0,0-.88.55,1,1,0,0,0,.44,1.32,1,1,0,0,0,1.33-.44A1,1,0,0,0,424.91,198.77Z"/><text class="cls-5" transform="translate(388.89 222.73)">Blockchain ne<tspan class="cls-6" x="69.43" y="0">t</tspan><tspan class="cls-7" x="73.51" y="0">w</tspan><tspan x="82.22" y="0">o</tspan><tspan class="cls-8" x="88.81" y="0">r</tspan><tspan x="92.78" y="0">k</tspan></text><path class="cls-4" d="M450.52,333.36V310.91a5.51,5.51,0,0,0-5.5-5.51H422a3.89,3.89,0,0,0-3.86,3.89v6.11h5.56v2.47a6.67,6.67,0,0,0-3.33,11.55v9.34l3.33-2.22v1.31a5.51,5.51,0,0,0,5.51,5.51h23a3.89,3.89,0,0,0,3.85-3.9v-6.11ZM420.35,309.3a1.67,1.67,0,1,1,3.33,0v3.89h-3.33ZM424.79,320a4.45,4.45,0,1,1-4.44,4.45A4.45,4.45,0,0,1,424.79,320Zm-2.22,10.74a6.66,6.66,0,0,0,4.45,0v3.87l-2.23-1.49-2.22,1.49Zm3.34,7.11v-1.31l3.33,2.22v-9.34a6.67,6.67,0,0,0-3.33-11.55V309.3a3.86,3.86,0,0,0-.38-1.67H445a3.28,3.28,0,0,1,3.28,3.28v28.56a3.86,3.86,0,0,0,.37,1.67H429.19a3.28,3.28,0,0,1-3.28-3.28Zm27.95,1.61a1.67,1.67,0,1,1-3.34,0v-3.89h3.34Z"/><path class="cls-4" d="M434.8,312.08h10v2.22h-10Z"/><path class="cls-4" d="M434.8,317.79h10V320h-10Z"/><path class="cls-4" d="M434.8,323.35h10v2.22h-10Z"/><path class="cls-4" d="M434.8,328.91h10v2.22h-10Z"/><path class="cls-4" d="M434.8,334.47h10v2.22h-10Z"/><text class="cls-5" transform="translate(400.07 362.28)">Sma<tspan class="cls-9" x="21.71" y="0">r</tspan><tspan x="25.92" y="0">t </tspan><tspan class="cls-10" x="32.44" y="0">c</tspan><tspan x="37.74" y="0">o</tspan><tspan class="cls-11" x="44.33" y="0">n</tspan><tspan x="50.94" y="0">t</tspan><tspan class="cls-12" x="54.91" y="0">r</tspan><tspan x="58.77" y="0">a</tspan><tspan class="cls-13" x="64.56" y="0">c</tspan><tspan x="70.09" y="0">t </tspan></text><text class="cls-5" transform="translate(391.66 500.55)">3<tspan class="cls-7" x="6.16" y="0">r</tspan><tspan x="9.96" y="0">d pa</tspan><tspan class="cls-9" x="31.88" y="0">r</tspan><tspan class="cls-6" x="36.1" y="0">t</tspan><tspan x="40.17" y="0">y se</tspan><tspan class="cls-14" x="59.13" y="0">r</tspan><tspan x="63.36" y="0">vi</tspan><tspan class="cls-15" x="71.94" y="0">c</tspan><tspan x="77.24" y="0">es</tspan><tspan x="-16.07" y="14.4">(</tspan><tspan class="cls-16" x="-12.66" y="14.4">e</tspan><tspan x="-6.79" y="14.4">.</tspan><tspan class="cls-17" x="-4.31" y="14.4">g</tspan><tspan x="2.22" y="14.4">. insu</tspan><tspan class="cls-12" x="28.08" y="14.4">r</tspan><tspan x="31.94" y="14.4">an</tspan><tspan class="cls-15" x="44.39" y="14.4">c</tspan><tspan x="49.69" y="14.4">e p</tspan><tspan class="cls-7" x="65.07" y="14.4">r</tspan><tspan class="cls-18" x="68.88" y="14.4">o</tspan><tspan x="75.38" y="14.4">vider)</tspan></text><path class="cls-4" d="M455.47,473.69c0-4.34-14.86-4.34-14.86,0,0,0,0,.05,0,.08s0,.06,0,.09v9.55c0,2.39,3.85,3.48,7.43,3.48s7.43-1.09,7.43-3.48v-9.55s0-.06,0-.09S455.47,473.72,455.47,473.69Zm-1.65,9.72c0,.75-2.25,1.83-5.78,1.83s-5.78-1.08-5.78-1.83v-1.05a14.2,14.2,0,0,0,11.56,0Zm0-3.3c0,.65-2.2,1.83-5.78,1.83s-5.78-1.18-5.78-1.83v-.94a14.09,14.09,0,0,0,11.56,0Zm0-3.18c0,.64-2.2,1.83-5.78,1.83s-5.78-1.19-5.78-1.83v-1.11a14.86,14.86,0,0,0,11.56,0ZM448,475.34c-3.75,0-5.78-1.17-5.78-1.65s2-1.65,5.78-1.65,5.78,1.17,5.78,1.65S451.79,475.34,448,475.34Z"/><path class="cls-4" d="M438.14,475.34h-2.48v-8.25h8.23c0,.25,0,.5,0,.76a.82.82,0,1,0,1.64.07c0-.27,0-.56,0-.83h6.59c0,.25,0,.5,0,.75a.83.83,0,0,0,1.65.15c.05-.57.08-1.15.08-1.73a19,19,0,1,0-19,19c.58,0,1.15,0,1.72-.08a.82.82,0,1,0-.14-1.64c-.25,0-.51,0-.76,0V477h2.48a.83.83,0,0,0,0-1.65Zm14-9.9h-6.58a31.4,31.4,0,0,0-1.24-8.26h5.27A17.18,17.18,0,0,1,452.12,465.44Zm-3.7-9.91h-4.68a16.55,16.55,0,0,0-3.5-5.72A17.41,17.41,0,0,1,448.42,455.53ZM435.66,449c2.49.45,4.72,2.92,6.24,6.51h-6.24Zm0,8.16h6.85a28.89,28.89,0,0,1,1.38,8.26h-8.23Zm-6.23-7.37a16.39,16.39,0,0,0-3.49,5.72h-4.69A17.41,17.41,0,0,1,429.43,449.81Zm-9.33,7.37h5.27a31.4,31.4,0,0,0-1.24,8.26h-6.58A17.18,17.18,0,0,1,420.1,457.18Zm-2.55,9.91h6.58a31.39,31.39,0,0,0,1.24,8.25H420.1A17.14,17.14,0,0,1,417.55,467.09Zm3.7,9.9h4.69a16.3,16.3,0,0,0,3.49,5.72A17.34,17.34,0,0,1,421.25,477ZM434,483.51c-2.49-.45-4.72-2.92-6.24-6.52H434Zm0-8.17h-6.85a28.88,28.88,0,0,1-1.38-8.25H434v8.25Zm0-9.9h-8.23a29.24,29.24,0,0,1,1.38-8.26H434v8.26Zm0-9.91h-6.23c1.51-3.59,3.74-6.06,6.23-6.51Z"/><path class="cls-19" d="M33.46,552.39a21.9,21.9,0,0,1,3.34-.26,7,7,0,0,1,4.92,1.53A5.54,5.54,0,0,1,43.43,558a6.47,6.47,0,0,1-1.74,4.72,7.55,7.55,0,0,1-5.37,1.75,25.61,25.61,0,0,1-2.86-.14ZM35,563.13a12,12,0,0,0,1.57.07c3.36,0,5.17-1.86,5.17-5.14,0-2.87-1.6-4.68-4.9-4.68a9.71,9.71,0,0,0-1.84.16Z"/><path class="cls-19" d="M51.73,558.67H47v4.39h5.26v1.3H45.45V552.23H52v1.3H47v3.84h4.7Z"/><path class="cls-19" d="M62.79,564a7.72,7.72,0,0,1-3.21.58c-3.41,0-6-2.16-6-6.15A6,6,0,0,1,59.94,552a6.55,6.55,0,0,1,2.88.53l-.39,1.28a5.77,5.77,0,0,0-2.44-.5c-2.85,0-4.74,1.82-4.74,5,0,3,1.72,4.87,4.66,4.87a6.29,6.29,0,0,0,2.57-.5Z"/><path class="cls-19" d="M71,558.67H66.32v4.39h5.27v1.3H64.75V552.23h6.56v1.3h-5v3.84H71Z"/><path class="cls-19" d="M73.6,564.36V552.23h1.73l3.88,6.13a34,34,0,0,1,2.17,3.95l0,0c-.14-1.62-.17-3.1-.17-5v-5.08h1.48v12.13h-1.6l-3.85-6.15A37.84,37.84,0,0,1,75,554.15l-.06,0c.1,1.53.12,3,.12,5v5.19Z"/><path class="cls-19" d="M87.76,553.55H84.07v-1.32h9v1.32H89.34v10.81H87.76Z"/><path class="cls-19" d="M94.39,552.39a16.66,16.66,0,0,1,3-.26,5,5,0,0,1,3.51,1,3,3,0,0,1,1,2.31,3.21,3.21,0,0,1-2.29,3.09v0a3.11,3.11,0,0,1,1.78,2.46,21,21,0,0,0,.93,3.33h-1.62a15.72,15.72,0,0,1-.8-2.9c-.36-1.67-1-2.31-2.44-2.36H96v5.26H94.39ZM96,557.92h1.6c1.68,0,2.74-.92,2.74-2.31,0-1.57-1.14-2.26-2.79-2.26a6.74,6.74,0,0,0-1.55.14Z"/><path class="cls-19" d="M106.14,560.55l-1.26,3.81h-1.62l4.13-12.13h1.88l4.14,12.13h-1.67l-1.3-3.81Zm4-1.23-1.2-3.49c-.26-.79-.44-1.52-.62-2.21h0c-.17.7-.36,1.45-.6,2.19l-1.19,3.51Z"/><path class="cls-19" d="M115.18,552.23h1.58V563H122v1.32h-6.77Z"/><path class="cls-19" d="M125.25,552.23v12.13h-1.57V552.23Z"/><path class="cls-19" d="M127.78,562.45a5.44,5.44,0,0,0,2.8.79c1.6,0,2.54-.84,2.54-2.07s-.65-1.79-2.29-2.4c-2-.7-3.21-1.74-3.21-3.44,0-1.89,1.57-3.29,3.93-3.29a5.57,5.57,0,0,1,2.68.58l-.44,1.29a4.57,4.57,0,0,0-2.29-.58c-1.67,0-2.29,1-2.29,1.82,0,1.12.73,1.68,2.41,2.33,2.06.8,3.09,1.79,3.09,3.57s-1.37,3.5-4.24,3.5a6.14,6.14,0,0,1-3.1-.79Z"/><path class="cls-19" d="M143.14,558.67h-4.71v4.39h5.26v1.3h-6.84V552.23h6.57v1.3h-5v3.84h4.71Z"/><path class="cls-19" d="M145.71,552.39a21.8,21.8,0,0,1,3.34-.26,6.9,6.9,0,0,1,4.91,1.53,5.51,5.51,0,0,1,1.72,4.34,6.47,6.47,0,0,1-1.74,4.72,7.58,7.58,0,0,1-5.38,1.75,25.55,25.55,0,0,1-2.85-.14Zm1.58,10.74a11.78,11.78,0,0,0,1.57.07c3.36,0,5.17-1.86,5.17-5.14,0-2.87-1.6-4.68-4.91-4.68a9.59,9.59,0,0,0-1.83.16Z"/><path class="cls-19" d="M161.51,552.39a22,22,0,0,1,3.34-.26,6.93,6.93,0,0,1,4.92,1.53,5.54,5.54,0,0,1,1.71,4.34,6.47,6.47,0,0,1-1.74,4.72,7.55,7.55,0,0,1-5.37,1.75,25.61,25.61,0,0,1-2.86-.14Zm1.58,10.74a12,12,0,0,0,1.58.07c3.35,0,5.16-1.86,5.16-5.14,0-2.87-1.6-4.68-4.9-4.68a9.71,9.71,0,0,0-1.84.16Z"/><path class="cls-19" d="M175.22,560.55,174,564.36h-1.63l4.13-12.13h1.88l4.15,12.13h-1.68l-1.3-3.81Zm4-1.23L178,555.83c-.26-.79-.44-1.52-.62-2.21h0c-.18.7-.37,1.45-.61,2.19l-1.19,3.51Z"/><path class="cls-19" d="M185.2,553.55h-3.7v-1.32h9v1.32h-3.72v10.81H185.2Z"/><path class="cls-19" d="M192.45,560.55l-1.26,3.81h-1.62l4.12-12.13h1.89l4.14,12.13h-1.67l-1.3-3.81Zm4-1.23-1.2-3.49c-.26-.79-.45-1.52-.63-2.21h0c-.17.7-.36,1.45-.6,2.19l-1.2,3.51Z"/><path class="cls-19" d="M205.11,562.45a5.44,5.44,0,0,0,2.8.79c1.6,0,2.54-.84,2.54-2.07s-.66-1.79-2.29-2.4c-2-.7-3.21-1.74-3.21-3.44,0-1.89,1.57-3.29,3.93-3.29a5.6,5.6,0,0,1,2.68.58l-.44,1.29a4.61,4.61,0,0,0-2.29-.58c-1.67,0-2.3,1-2.3,1.82,0,1.12.74,1.68,2.42,2.33,2.05.8,3.09,1.79,3.09,3.57s-1.37,3.5-4.25,3.5a6.2,6.2,0,0,1-3.1-.79Z"/><path class="cls-19" d="M216.5,553.55h-3.7v-1.32h9v1.32h-3.72v10.81H216.5Z"/><path class="cls-19" d="M233,558.17c0,4.17-2.54,6.39-5.63,6.39s-5.45-2.49-5.45-6.16c0-3.84,2.38-6.37,5.62-6.37S233,554.57,233,558.17Zm-9.43.19c0,2.6,1.41,4.92,3.89,4.92s3.88-2.28,3.88-5c0-2.41-1.26-4.94-3.86-4.94S223.59,555.71,223.59,558.36Z"/><path class="cls-19" d="M235,552.39a16.66,16.66,0,0,1,3-.26,5,5,0,0,1,3.52,1,3.07,3.07,0,0,1,.95,2.31,3.21,3.21,0,0,1-2.29,3.09v0A3.09,3.09,0,0,1,242,561a21,21,0,0,0,.93,3.33h-1.62a15.72,15.72,0,0,1-.8-2.9c-.36-1.67-1-2.31-2.44-2.36h-1.48v5.26H235Zm1.57,5.53h1.6c1.68,0,2.74-.92,2.74-2.31,0-1.57-1.14-2.26-2.79-2.26a6.74,6.74,0,0,0-1.55.14Z"/><path class="cls-19" d="M246.79,560.55l-1.26,3.81h-1.62L248,552.23h1.88l4.15,12.13h-1.68l-1.3-3.81Zm4-1.23-1.2-3.49c-.26-.79-.44-1.52-.62-2.21h0c-.17.7-.36,1.45-.6,2.19l-1.19,3.51Z"/><path class="cls-19" d="M264.81,563.82a11.13,11.13,0,0,1-3.73.66,5.68,5.68,0,0,1-6.22-6.11c0-3.62,2.49-6.27,6.56-6.27a7.57,7.57,0,0,1,3,.56l-.39,1.28a6.06,6.06,0,0,0-2.68-.52,4.53,4.53,0,0,0-4.87,4.87c0,3.08,1.84,4.9,4.68,4.9a5,5,0,0,0,2.08-.33v-3.61h-2.45V558h4Z"/><path class="cls-19" d="M273.47,558.67h-4.7v4.39H274v1.3h-6.84V552.23h6.56v1.3h-5v3.84h4.7Z"/><path class="cls-19" d="M287.47,564.36c-.35-.35-.66-.69-1.13-1.18a5,5,0,0,1-3.55,1.38,3.44,3.44,0,0,1-3.73-3.4,4,4,0,0,1,2.37-3.55v-.05a4.24,4.24,0,0,1-1-2.54,3,3,0,0,1,3.09-3,2.52,2.52,0,0,1,2.68,2.57c0,1.28-.74,2.28-2.66,3.24v.06c1,1.19,2.18,2.51,3,3.38a9,9,0,0,0,1.17-3.54h1.44a9.26,9.26,0,0,1-1.75,4.47l2,2.15Zm-1.92-2.09c-.72-.78-2.07-2.27-3.41-3.82a3,3,0,0,0-1.56,2.46,2.39,2.39,0,0,0,2.47,2.46A3.31,3.31,0,0,0,285.55,562.27Zm-3.69-7.4a3.4,3.4,0,0,0,.93,2.18c1.23-.7,2-1.34,2-2.37a1.43,1.43,0,0,0-1.41-1.57A1.58,1.58,0,0,0,281.86,554.87Z"/><path class="cls-19" d="M296.6,564.36l-4-12.13h1.71l1.88,6c.52,1.64,1,3.11,1.3,4.53h0c.34-1.41.84-2.93,1.39-4.51l2.05-6h1.67l-4.33,12.13Z"/><path class="cls-19" d="M310.25,558.67h-4.71v4.39h5.26v1.3H304V552.23h6.56v1.3h-5v3.84h4.71Z"/><path class="cls-19" d="M312.82,552.39a16.66,16.66,0,0,1,3-.26,5,5,0,0,1,3.51,1,3,3,0,0,1,1,2.31,3.21,3.21,0,0,1-2.29,3.09v0A3.11,3.11,0,0,1,319.8,561a19.91,19.91,0,0,0,.93,3.33H319.1a16,16,0,0,1-.79-2.9c-.36-1.67-1-2.31-2.44-2.36h-1.48v5.26h-1.57Zm1.57,5.53H316c1.68,0,2.74-.92,2.74-2.31,0-1.57-1.14-2.26-2.79-2.26a6.67,6.67,0,0,0-1.55.14Z"/><path class="cls-19" d="M324.08,552.23v12.13h-1.57V552.23Z"/><path class="cls-19" d="M326.81,552.23h6.53v1.3h-5v4H333v1.3h-4.59v5.49h-1.57Z"/><path class="cls-19" d="M337.15,552.23v12.13h-1.58V552.23Z"/><path class="cls-19" d="M348.36,564a7.72,7.72,0,0,1-3.21.58c-3.42,0-6-2.16-6-6.15A6,6,0,0,1,345.5,552a6.52,6.52,0,0,1,2.88.53l-.38,1.28a5.8,5.8,0,0,0-2.44-.5c-2.85,0-4.74,1.82-4.74,5,0,3,1.71,4.87,4.65,4.87a6.22,6.22,0,0,0,2.57-.5Z"/><path class="cls-19" d="M352.36,560.55l-1.26,3.81h-1.62l4.13-12.13h1.88l4.15,12.13H358l-1.3-3.81Zm4-1.23-1.2-3.49c-.26-.79-.45-1.52-.62-2.21h0c-.17.7-.36,1.45-.6,2.19l-1.19,3.51Z"/><path class="cls-19" d="M362.33,553.55h-3.69v-1.32h9v1.32h-3.71v10.81h-1.58Z"/><path class="cls-19" d="M370.54,552.23v12.13H369V552.23Z"/><path class="cls-19" d="M383.65,558.17c0,4.17-2.54,6.39-5.64,6.39s-5.45-2.49-5.45-6.16c0-3.84,2.38-6.37,5.62-6.37S383.65,554.57,383.65,558.17Zm-9.43.19c0,2.6,1.41,4.92,3.88,4.92s3.89-2.28,3.89-5c0-2.41-1.26-4.94-3.87-4.94S374.22,555.71,374.22,558.36Z"/><path class="cls-19" d="M385.67,564.36V552.23h1.72l3.89,6.13a33.87,33.87,0,0,1,2.16,3.95l0,0c-.14-1.62-.17-3.1-.17-5v-5.08h1.48v12.13H393.2l-3.86-6.15a39.66,39.66,0,0,1-2.26-4.06l-.05,0c.09,1.53.11,3,.11,5v5.19Z"/></svg>