<svg id="Layer_1" data-name="Layer 1" xmlns="http://www.w3.org/2000/svg" viewBox="0 0 841.89 595.28"><defs><style>.cls-1{fill:#e4f5fc;}.cls-2,.cls-3{fill:#231f20;}.cls-2{stroke:#231f20;stroke-width:0.01px;}.cls-2,.cls-8{stroke-miterlimit:10;}.cls-3{font-size:12px;font-family:MyriadPro-Regular, Myriad Pro;}.cls-4{letter-spacing:-0.04em;}.cls-5{letter-spacing:-0.01em;}.cls-6{letter-spacing:0em;}.cls-7{letter-spacing:0em;}.cls-8{fill:none;stroke:#58595b;}.cls-9{fill:#58595b;}.cls-10{fill:#010101;}.cls-11{letter-spacing:0.01em;}.cls-12{letter-spacing:-0.01em;}.cls-13{fill:#00aeef;}</style></defs><title>Artboard 1</title><rect class="cls-1" y="2.13" width="841.89" height="593.15"/><path class="cls-2" d="M425.85,317.52h7V321h-7Z"/><path class="cls-2" d="M411.85,328.73h-1.41a1.4,1.4,0,0,1-1.4-1.4V311.92a1.4,1.4,0,0,1,1.4-1.4h1.41a1.4,1.4,0,0,1,1.4,1.4v15.41A1.4,1.4,0,0,1,411.85,328.73Z"/><path class="cls-2" d="M417.45,328.73h-1.4a1.4,1.4,0,0,1-1.4-1.4V311.92a1.4,1.4,0,0,1,1.4-1.4h1.4a1.4,1.4,0,0,1,1.4,1.4v15.41A1.4,1.4,0,0,1,417.45,328.73Z"/><path class="cls-2" d="M443.37,320.32a2.1,2.1,0,1,1,2.1-2.1A2.11,2.11,0,0,1,443.37,320.32Z"/><path class="cls-2" d="M443.37,327.33a2.1,2.1,0,1,1,2.1-2.1A2.11,2.11,0,0,1,443.37,327.33Z"/><path class="cls-2" d="M447.57,313.32h-.7v-3.5a2.1,2.1,0,0,0-2.1-2.1H408.34a2.1,2.1,0,0,0-2.1,2.1V335a2.1,2.1,0,0,0,2.1,2.1h7a2.1,2.1,0,0,0,2.1-2.1v-1.4a2.1,2.1,0,1,1,4.2,0V335a2.1,2.1,0,0,0,2.1,2.1h21a2.1,2.1,0,0,0,2.1-2.1v-3.5h.7a2.1,2.1,0,0,0,2.1-2.1v-14A2.1,2.1,0,0,0,447.57,313.32Zm.7,16.11a.7.7,0,0,1-.7.7h-2.1V335a.7.7,0,0,1-.7.7h-21a.7.7,0,0,1-.7-.7v-1.4a3.5,3.5,0,0,0-7,0V335a.7.7,0,0,1-.7.7h-7a.7.7,0,0,1-.7-.7V309.82a.7.7,0,0,1,.7-.7h36.43a.7.7,0,0,1,.7.7v4.9h2.1a.7.7,0,0,1,.7.7Z"/><path class="cls-2" d="M409,334.33h5.61v-4.2H409Zm1.4-2.8h2.81v1.4h-2.81Z"/><path class="cls-2" d="M424.45,334.33h5.61v-4.2h-5.61Zm1.4-2.8h2.81v1.4h-2.81Z"/><path class="cls-2" d="M431.46,334.33h5.6v-4.2h-5.6Zm1.4-2.8h2.8v1.4h-2.8Z"/><path class="cls-2" d="M438.46,334.33h5.61v-4.2h-5.61Zm1.4-2.8h2.81v1.4h-2.81Z"/><path class="cls-2" d="M431.46,327.33v-2.8h1.4v2.8h1.4v-2.8h1.4v-1.4h2.8v-1.41h-2.8v-1.4h2.8v-1.4h-2.8v-1.4h2.8v-1.4h-2.8v-1.4h-1.4v-2.8h-1.4v2.8h-1.4v-2.8h-1.4v2.8h-1.4v-2.8h-1.4v2.8h-1.41v-2.8h-1.4v2.8h-1.4v1.4h-2.8v1.4h2.8v1.4h-2.8v1.4h2.8v1.4h-2.8v1.41h2.8v1.4h1.4v2.8h1.4v-2.8h1.41v2.8h1.4v-2.8h1.4v2.8Zm-7-11.21h9.81v7h-9.81Z"/><path class="cls-2" d="M425.85,317.52h1.41v1.4h-1.41Z"/><path class="cls-2" d="M428.66,317.52h4.2v1.4h-4.2Z"/><path class="cls-2" d="M425.85,320.32h7v1.4h-7Z"/><path class="cls-2" d="M442.67,310.52h1.4v1.4h-1.4Z"/><path class="cls-2" d="M437.06,310.52h1.4v1.4h-1.4Z"/><path class="cls-2" d="M439.86,310.52h1.4v1.4h-1.4Z"/><text class="cls-3" transform="translate(395.61 369.72)">I<tspan class="cls-4" x="2.87" y="0">o</tspan><tspan x="8.98" y="0">T Ha</tspan><tspan class="cls-5" x="31.09" y="0">r</tspan><tspan class="cls-6" x="34.9" y="0">d</tspan><tspan class="cls-7" x="41.66" y="0">w</tspan><tspan x="50.45" y="0">a</tspan><tspan class="cls-5" x="56.23" y="0">r</tspan><tspan x="60.04" y="0">e</tspan></text><text class="cls-3" transform="translate(313.62 324.8)">NFC + BLE</text><line class="cls-8" x1="289.14" y1="321.17" x2="308.8" y2="321.17"/><polygon class="cls-9" points="291.95 324.87 290.37 321.17 291.95 317.46 283.17 321.17 291.95 324.87"/><line class="cls-8" x1="369.45" y1="321.17" x2="389.11" y2="321.17"/><polygon class="cls-9" points="386.3 324.87 387.88 321.17 386.3 317.46 395.08 321.17 386.3 324.87"/><path class="cls-10" d="M268.72,299.72H247.1a3.74,3.74,0,0,0-3.74,3.74v43.89a3.73,3.73,0,0,0,3.74,3.74h21.62a3.74,3.74,0,0,0,3.74-3.74V303.46A3.75,3.75,0,0,0,268.72,299.72Zm.93,41.62H246.17V306h23.48Zm-6.73-37.82h-10v-1.09h10v1.09Zm4.29-.5a1,1,0,1,1-1-1A1,1,0,0,1,267.21,303Zm-4.74,44.08h-9.13v-2.8h9.13Z"/><text class="cls-3" transform="translate(211.13 369.72)"><tspan class="cls-11">M</tspan><tspan x="9.72" y="0">obile applic</tspan><tspan class="cls-7" x="67.79" y="0">a</tspan><tspan x="73.52" y="0">tion</tspan></text><line class="cls-8" x1="566.11" y1="321.17" x2="466.14" y2="321.17"/><polygon class="cls-9" points="563.3 317.46 564.88 321.17 563.3 324.87 572.08 321.17 563.3 317.46"/><polygon class="cls-9" points="468.95 317.46 467.37 321.17 468.95 324.87 460.17 321.17 468.95 317.46"/><path class="cls-10" d="M602.38,314.42h-9.65v-4.21a3.63,3.63,0,1,1,7.26,0v1.14a1.13,1.13,0,1,0,2.25,0v-1.14a5.88,5.88,0,1,0-11.76,0v4.21h-.13a3.11,3.11,0,0,0-3.11,3.11v12a3.25,3.25,0,0,0,3.24,3.25h11.76a3.25,3.25,0,0,0,3.24-3.25v-12A3.11,3.11,0,0,0,602.38,314.42Zm.86,15.11a1,1,0,0,1-1,1H590.48a1,1,0,0,1-1-1v-12a.85.85,0,0,1,.86-.86h12a.86.86,0,0,1,.86.86v12Z"/><path class="cls-10" d="M596.36,319.42a2.33,2.33,0,0,0-1.12,4.36v2.87a1.13,1.13,0,0,0,2.25,0v-2.87a2.33,2.33,0,0,0-1.13-4.36Z"/><path class="cls-10" d="M604.42,310.41a1,1,0,0,0,.41.08,1.13,1.13,0,0,0,1-.7l.83-2.09a1.12,1.12,0,1,0-2.08-.83l-.84,2.08A1.12,1.12,0,0,0,604.42,310.41Z"/><path class="cls-10" d="M605.71,311.79a1.12,1.12,0,0,0,1.47.6l2.07-.89a1.12,1.12,0,1,0-.89-2.06l-2.06.88A1.11,1.11,0,0,0,605.71,311.79Z"/><path class="cls-10" d="M609.19,313.9l-2.09-.84a1.12,1.12,0,1,0-.83,2.09l2.08.83a1,1,0,0,0,.42.08,1.1,1.1,0,0,0,1-.7A1.12,1.12,0,0,0,609.19,313.9Z"/><text class="cls-3" transform="translate(564.46 371.47)"><tspan class="cls-12">L</tspan><tspan x="5.5" y="0">ock / Un</tspan><tspan class="cls-12" x="46.71" y="0">L</tspan><tspan x="52.21" y="0">ock</tspan></text><path class="cls-13" d="M43.84,558.17c0,4.17-2.53,6.39-5.63,6.39s-5.45-2.49-5.45-6.16c0-3.84,2.38-6.37,5.62-6.37S43.84,554.57,43.84,558.17Zm-9.42.19c0,2.6,1.41,4.92,3.88,4.92s3.89-2.28,3.89-5c0-2.41-1.27-4.94-3.87-4.94S34.42,555.71,34.42,558.36Z"/><path class="cls-13" d="M45.87,552.23H52.4v1.3h-5v4H52v1.3H47.44v5.49H45.87Z"/><path class="cls-13" d="M54.63,552.23h6.54v1.3h-5v4h4.58v1.3H56.21v5.49H54.63Z"/><path class="cls-13" d="M63.4,552.23H65V563h5.19v1.32H63.4Z"/><path class="cls-13" d="M73.47,552.23v12.13H71.89V552.23Z"/><path class="cls-13" d="M76.2,564.36V552.23h1.72l3.89,6.13A35.43,35.43,0,0,1,84,562.31l0,0c-.14-1.62-.17-3.1-.17-5v-5.08h1.48v12.13H83.73l-3.86-6.15a39.66,39.66,0,0,1-2.26-4.06l0,0c.09,1.53.11,3,.11,5v5.19Z"/><path class="cls-13" d="M94.32,558.67h-4.7v4.39h5.26v1.3H88V552.23H94.6v1.3h-5v3.84h4.7Z"/><path class="cls-13" d="M100.71,552.23h1.58V563h5.19v1.32h-6.77Z"/><path class="cls-13" d="M118.88,558.17c0,4.17-2.53,6.39-5.63,6.39s-5.45-2.49-5.45-6.16c0-3.84,2.38-6.37,5.62-6.37S118.88,554.57,118.88,558.17Zm-9.42.19c0,2.6,1.41,4.92,3.88,4.92s3.89-2.28,3.89-5c0-2.41-1.26-4.94-3.87-4.94S109.46,555.71,109.46,558.36Z"/><path class="cls-13" d="M129.39,564a7.72,7.72,0,0,1-3.21.58c-3.42,0-6-2.16-6-6.15a6,6,0,0,1,6.34-6.36,6.5,6.5,0,0,1,2.87.53l-.38,1.28a5.77,5.77,0,0,0-2.44-.5c-2.85,0-4.74,1.82-4.74,5,0,3,1.71,4.87,4.65,4.87a6.22,6.22,0,0,0,2.57-.5Z"/><path class="cls-13" d="M131.35,552.23h1.56v5.85H133c.32-.48.65-.9,1-1.29l3.7-4.56h2l-4.39,5.15,4.73,7h-1.86l-4-6-1.17,1.33v4.62h-1.56Z"/><path class="cls-13" d="M142.68,552.23v12.13H141.1V552.23Z"/><path class="cls-13" d="M145.4,564.36V552.23h1.73l3.89,6.13a35.43,35.43,0,0,1,2.16,3.95l0,0c-.14-1.62-.17-3.1-.17-5v-5.08h1.48v12.13h-1.6l-3.85-6.15a37.84,37.84,0,0,1-2.26-4.06l0,0c.09,1.53.11,3,.11,5v5.19Z"/><path class="cls-13" d="M166.5,563.82a11.18,11.18,0,0,1-3.73.66,5.69,5.69,0,0,1-6.23-6.11c0-3.62,2.5-6.27,6.56-6.27a7.63,7.63,0,0,1,3,.56l-.39,1.28a6.12,6.12,0,0,0-2.68-.52,4.53,4.53,0,0,0-4.88,4.87c0,3.08,1.85,4.9,4.69,4.9a5.06,5.06,0,0,0,2.08-.33v-3.61H162.5V558h4Z"/><path class="cls-13" d="M180.3,564.36c-.35-.35-.66-.69-1.13-1.18a5,5,0,0,1-3.55,1.38,3.44,3.44,0,0,1-3.73-3.4,4,4,0,0,1,2.37-3.55v-.05a4.24,4.24,0,0,1-1-2.54,3,3,0,0,1,3.08-3A2.52,2.52,0,0,1,179,554.6c0,1.28-.75,2.28-2.66,3.24v.06c1,1.19,2.18,2.51,3,3.38a9,9,0,0,0,1.17-3.54h1.43a9.16,9.16,0,0,1-1.74,4.47c.65.7,1.27,1.37,2,2.15Zm-1.92-2.09c-.72-.78-2.07-2.27-3.41-3.82a3,3,0,0,0-1.57,2.46,2.39,2.39,0,0,0,2.48,2.46A3.33,3.33,0,0,0,178.38,562.27Zm-3.69-7.4a3.44,3.44,0,0,0,.92,2.18c1.24-.7,2-1.34,2-2.37a1.43,1.43,0,0,0-1.41-1.57A1.58,1.58,0,0,0,174.69,554.87Z"/><path class="cls-13" d="M189,552.23v7.19c0,2.71,1.2,3.85,2.84,3.85s2.95-1.19,2.95-3.85v-7.19h1.57v7.08c0,3.73-2,5.25-4.59,5.25s-4.35-1.41-4.35-5.19v-7.14Z"/><path class="cls-13" d="M199,564.36V552.23h1.73l3.88,6.13a34,34,0,0,1,2.17,3.95l0,0c-.14-1.62-.17-3.1-.17-5v-5.08h1.48v12.13h-1.6l-3.85-6.15a37.84,37.84,0,0,1-2.26-4.06l-.06,0c.1,1.53.12,3,.12,5v5.19Z"/><path class="cls-13" d="M210.89,552.23h1.57V563h5.19v1.32h-6.76Z"/><path class="cls-13" d="M229.06,558.17c0,4.17-2.54,6.39-5.63,6.39S218,562.07,218,558.4c0-3.84,2.37-6.37,5.61-6.37S229.06,554.57,229.06,558.17Zm-9.43.19c0,2.6,1.41,4.92,3.89,4.92s3.88-2.28,3.88-5c0-2.41-1.26-4.94-3.87-4.94S219.63,555.71,219.63,558.36Z"/><path class="cls-13" d="M239.57,564a7.72,7.72,0,0,1-3.21.58c-3.42,0-6-2.16-6-6.15a6,6,0,0,1,6.33-6.36,6.52,6.52,0,0,1,2.88.53l-.38,1.28a5.82,5.82,0,0,0-2.45-.5c-2.85,0-4.73,1.82-4.73,5,0,3,1.71,4.87,4.65,4.87a6.22,6.22,0,0,0,2.57-.5Z"/><path class="cls-13" d="M241.52,552.23h1.57v5.85h.06c.31-.48.65-.9.95-1.29l3.71-4.56h1.94l-4.39,5.15,4.74,7h-1.86l-4-6-1.16,1.33v4.62h-1.57Z"/><path class="cls-13" d="M252.86,552.23v12.13h-1.58V552.23Z"/><path class="cls-13" d="M255.58,564.36V552.23h1.72l3.89,6.13a35.61,35.61,0,0,1,2.17,3.95l0,0c-.14-1.62-.17-3.1-.17-5v-5.08h1.47v12.13h-1.59l-3.86-6.15a39.52,39.52,0,0,1-2.25-4.06l-.06,0c.1,1.53.12,3,.12,5v5.19Z"/><path class="cls-13" d="M276.68,563.82a11.25,11.25,0,0,1-3.74.66,5.69,5.69,0,0,1-6.22-6.11c0-3.62,2.49-6.27,6.56-6.27a7.57,7.57,0,0,1,3,.56l-.39,1.28a6.06,6.06,0,0,0-2.68-.52,4.53,4.53,0,0,0-4.87,4.87c0,3.08,1.84,4.9,4.68,4.9a5,5,0,0,0,2.08-.33v-3.61h-2.45V558h4Z"/></svg>