<svg id="Layer_1" data-name="Layer 1" xmlns="http://www.w3.org/2000/svg" viewBox="0 0 841.89 595.28"><defs><style>.cls-1{fill:#e4f5fc;}.cls-2{fill:#fad7e7;}.cls-3{fill:#f0f5d8;}.cls-17,.cls-4{fill:none;}.cls-4{stroke:#58595b;}.cls-13,.cls-17,.cls-4{stroke-miterlimit:10;}.cls-5{fill:#58595b;}.cls-6{font-size:12px;font-family:MyriadPro-Regular, Myriad Pro;}.cls-13,.cls-43,.cls-6{fill:#231f20;}.cls-7{letter-spacing:-0.02em;}.cls-8{letter-spacing:0.04em;}.cls-9{letter-spacing:-0.02em;}.cls-10{letter-spacing:0em;}.cls-11{letter-spacing:0.04em;}.cls-12{letter-spacing:0em;}.cls-13,.cls-17{stroke:#231f20;}.cls-13{stroke-width:0.01px;}.cls-14{letter-spacing:0.01em;}.cls-15{letter-spacing:-0.03em;}.cls-16{letter-spacing:-0.04em;}.cls-17{stroke-width:3px;}.cls-18{letter-spacing:-0.01em;}.cls-19{fill:#010101;}.cls-20{letter-spacing:0.01em;}.cls-21{letter-spacing:0em;}.cls-22{letter-spacing:-0.01em;}.cls-23{letter-spacing:0em;}.cls-24{letter-spacing:-0.01em;}.cls-25{letter-spacing:0.01em;}.cls-26{letter-spacing:0.03em;}.cls-27{letter-spacing:-0.01em;}.cls-28{letter-spacing:-0.01em;}.cls-29{letter-spacing:0.02em;}.cls-30{letter-spacing:-0.01em;}.cls-31{letter-spacing:-0.01em;}.cls-32{letter-spacing:0.01em;}.cls-33{letter-spacing:0.01em;}.cls-34{letter-spacing:0em;}.cls-35{letter-spacing:0.01em;}.cls-36{letter-spacing:0.02em;}.cls-37{letter-spacing:-0.01em;}.cls-38{letter-spacing:-0.01em;}.cls-39{letter-spacing:-0.01em;}.cls-40{fill:#00aeef;}.cls-41{fill:#ec008c;}.cls-42{fill:#39b54a;}</style></defs><title>Artboard 2</title><rect class="cls-1" y="465.78" width="532.95" height="129.49"/><rect class="cls-2" width="532.95" height="465.78"/><rect class="cls-3" x="532.95" width="308.94" height="465.78"/><line class="cls-4" x1="298.28" y1="427.5" x2="298.28" y2="401.62"/><polygon class="cls-5" points="301.98 404.43 298.28 402.86 294.58 404.43 298.28 395.65 301.98 404.43"/><line class="cls-4" x1="298.28" y1="473.6" x2="298.28" y2="448.31"/><polygon class="cls-5" points="301.98 470.79 298.28 472.37 294.58 470.79 298.28 479.57 301.98 470.79"/><text class="cls-6" transform="translate(268.8 442.63)">M<tspan class="cls-7" x="9.65" y="0">Q</tspan><tspan class="cls-8" x="17.62" y="0">T</tspan><tspan x="24.04" y="0">T (</tspan><tspan class="cls-9" x="35.95" y="0">P</tspan><tspan x="42.16" y="0">u</tspan><tspan class="cls-10" x="48.77" y="0">b</tspan><tspan x="55.56" y="0">)</tspan></text><line class="cls-4" x1="298.28" y1="259.83" x2="298.28" y2="233.95"/><polygon class="cls-5" points="301.98 236.76 298.28 235.19 294.58 236.76 298.28 227.99 301.98 236.76"/><line class="cls-4" x1="298.28" y1="302.33" x2="298.28" y2="280.64"/><polygon class="cls-5" points="301.98 299.53 298.28 301.1 294.58 299.53 298.28 308.31 301.98 299.53"/><text class="cls-6" transform="translate(268.94 274.96)">M<tspan class="cls-7" x="9.65" y="0">Q</tspan><tspan class="cls-11" x="17.62" y="0">T</tspan><tspan x="24.04" y="0">T (Su</tspan><tspan class="cls-12" x="48.48" y="0">b</tspan><tspan x="55.27" y="0">)</tspan></text><line class="cls-4" x1="490.01" y1="473.6" x2="490.01" y2="334"/><polygon class="cls-5" points="493.71 470.79 490.01 472.37 486.31 470.79 490.01 479.57 493.71 470.79"/><text class="cls-6" transform="translate(473.76 326.13)">H<tspan class="cls-11" x="7.82" y="0">T</tspan><tspan x="14.24" y="0">TPS</tspan></text><path class="cls-13" d="M296.18,501.6h7v3.5h-7Z"/><path class="cls-13" d="M282.17,512.81h-1.4a1.4,1.4,0,0,1-1.4-1.4V496a1.41,1.41,0,0,1,1.4-1.41h1.4a1.41,1.41,0,0,1,1.4,1.41v15.41A1.4,1.4,0,0,1,282.17,512.81Z"/><path class="cls-13" d="M287.77,512.81h-1.4a1.4,1.4,0,0,1-1.4-1.4V496a1.41,1.41,0,0,1,1.4-1.41h1.4a1.4,1.4,0,0,1,1.4,1.41v15.41A1.4,1.4,0,0,1,287.77,512.81Z"/><path class="cls-13" d="M313.69,504.4a2.1,2.1,0,1,1,2.1-2.1A2.1,2.1,0,0,1,313.69,504.4Z"/><path class="cls-13" d="M313.69,511.41a2.11,2.11,0,1,1,2.1-2.11A2.11,2.11,0,0,1,313.69,511.41Z"/><path class="cls-13" d="M317.89,497.4h-.7v-3.51a2.11,2.11,0,0,0-2.1-2.1H278.67a2.11,2.11,0,0,0-2.1,2.1v25.22a2.1,2.1,0,0,0,2.1,2.1h7a2.1,2.1,0,0,0,2.1-2.1v-1.4a2.11,2.11,0,0,1,4.21,0v1.4a2.1,2.1,0,0,0,2.1,2.1h21a2.1,2.1,0,0,0,2.1-2.1v-3.5h.7a2.1,2.1,0,0,0,2.1-2.1v-14A2.1,2.1,0,0,0,317.89,497.4Zm.7,16.11a.7.7,0,0,1-.7.7h-2.1v4.9a.7.7,0,0,1-.7.7h-21a.7.7,0,0,1-.7-.7v-1.4a3.51,3.51,0,0,0-7,0v1.4a.7.7,0,0,1-.7.7h-7a.7.7,0,0,1-.7-.7V493.89a.7.7,0,0,1,.7-.7h36.42a.7.7,0,0,1,.7.7v4.91h2.1a.7.7,0,0,1,.7.7Z"/><path class="cls-13" d="M279.37,518.41H285v-4.2h-5.6Zm1.4-2.8h2.8V517h-2.8Z"/><path class="cls-13" d="M294.78,518.41h5.6v-4.2h-5.6Zm1.4-2.8H299V517h-2.8Z"/><path class="cls-13" d="M301.78,518.41h5.61v-4.2h-5.61Zm1.4-2.8H306V517h-2.81Z"/><path class="cls-13" d="M308.79,518.41h5.6v-4.2h-5.6Zm1.4-2.8H313V517h-2.8Z"/><path class="cls-13" d="M301.78,511.41V508.6h1.4v2.81h1.4V508.6H306v-1.4h2.8v-1.4H306v-1.4h2.8V503H306v-1.4h2.8v-1.4H306v-1.4h-1.41V496h-1.4v2.8h-1.4V496h-1.4v2.8H299V496h-1.4v2.8h-1.4V496h-1.4v2.8h-1.4v1.4h-2.8v1.4h2.8V503h-2.8v1.4h2.8v1.4h-2.8v1.4h2.8v1.4h1.4v2.81h1.4V508.6h1.4v2.81H299V508.6h1.4v2.81Zm-7-11.21h9.8v7h-9.8Z"/><path class="cls-13" d="M296.18,501.6h1.4V503h-1.4Z"/><path class="cls-13" d="M299,501.6h4.2V503H299Z"/><path class="cls-13" d="M296.18,504.4h7v1.4h-7Z"/><path class="cls-13" d="M313,494.59h1.4V496H313Z"/><path class="cls-13" d="M307.39,494.59h1.4V496h-1.4Z"/><path class="cls-13" d="M310.19,494.59h1.4V496h-1.4Z"/><text class="cls-6" transform="translate(261.21 539.26)"><tspan class="cls-14">G</tspan><tspan x="7.81" y="0">o</tspan><tspan class="cls-15" x="14.4" y="0">V</tspan><tspan x="20.7" y="0">elo I</tspan><tspan class="cls-16" x="41.54" y="0">o</tspan><tspan x="47.65" y="0">T HW</tspan></text><path class="cls-17" d="M318,363H275.6a10.63,10.63,0,0,1-3.7-20.6,1.25,1.25,0,0,0,.81-1.26c0-.26,0-.47,0-.66A9.78,9.78,0,0,1,287.24,332a1.26,1.26,0,0,0,1.12.05,1.23,1.23,0,0,0,.71-.87,15.65,15.65,0,0,1,30.9,3.48v.27a1.26,1.26,0,0,0,1,1.25A13.6,13.6,0,0,1,318,363Z"/><text class="cls-6" transform="translate(265.78 381.96)">M<tspan class="cls-7" x="9.65" y="0">Q</tspan><tspan class="cls-8" x="17.62" y="0">T</tspan><tspan x="24.04" y="0">T B</tspan><tspan class="cls-18" x="39.05" y="0">r</tspan><tspan x="42.85" y="0">oker</tspan></text><text class="cls-6" transform="translate(373.43 511.93)">NFC + BLE</text><line class="cls-4" x1="348.95" y1="508.3" x2="368.61" y2="508.3"/><polygon class="cls-5" points="351.76 512.01 350.19 508.3 351.76 504.6 342.98 508.3 351.76 512.01"/><line class="cls-4" x1="429.27" y1="508.3" x2="448.93" y2="508.3"/><polygon class="cls-5" points="446.12 512.01 447.69 508.3 446.12 504.6 454.9 508.3 446.12 512.01"/><path class="cls-19" d="M500.82,485.86H479.2a3.73,3.73,0,0,0-3.73,3.74v43.89a3.74,3.74,0,0,0,3.73,3.74h21.62a3.75,3.75,0,0,0,3.74-3.74V489.6A3.74,3.74,0,0,0,500.82,485.86Zm.94,41.62H478.27V492.17h23.49ZM495,489.65H485v-1.09h10v1.09Zm4.29-.49a1,1,0,1,1-1-1A1,1,0,0,1,499.31,489.16Zm-4.74,44.08h-9.12v-2.81h9.12Z"/><text class="cls-6" transform="translate(460.19 555.85)"><tspan class="cls-14">G</tspan><tspan x="7.81" y="0">o</tspan><tspan class="cls-15" x="14.4" y="0">V</tspan><tspan x="20.7" y="0">elo </tspan><tspan class="cls-10" x="38.68" y="0">A</tspan><tspan x="45.98" y="0">pp</tspan></text><path class="cls-19" d="M186.48,165.74a3.61,3.61,0,0,0-.28-1.37h0l-4-9.51a3.56,3.56,0,0,0-3.3-2.2H153.41a3.56,3.56,0,0,0-3.29,2.2l-4,9.51a3.6,3.6,0,0,0-.27,1.37v4.92a3.59,3.59,0,0,0,.91,2.38,3.57,3.57,0,0,0-.91,2.38v4.75a3.57,3.57,0,0,0,.91,2.38,3.59,3.59,0,0,0-.91,2.38v4.76a3.57,3.57,0,0,0,3.57,3.57h33.46a3.57,3.57,0,0,0,3.57-3.57v-4.76a3.59,3.59,0,0,0-.91-2.38,3.57,3.57,0,0,0,.91-2.38v-4.75a3.57,3.57,0,0,0-.91-2.38,3.59,3.59,0,0,0,.91-2.38Zm-34.16-10a1.18,1.18,0,0,1,1.09-.73h25.53a1.18,1.18,0,0,1,1.1.73l2.67,6.41H149.65Zm31.78,33.92a1.2,1.2,0,0,1-1.19,1.19H149.45a1.19,1.19,0,0,1-1.19-1.19v-4.76a1.19,1.19,0,0,1,1.19-1.19h33.46a1.2,1.2,0,0,1,1.19,1.19Zm0-9.52a1.19,1.19,0,0,1-1.19,1.19H149.45a1.19,1.19,0,0,1-1.19-1.19v-4.75a1.19,1.19,0,0,1,1.19-1.19h33.46a1.19,1.19,0,0,1,1.19,1.19Zm0-9.51a1.19,1.19,0,0,1-1.19,1.19H149.45a1.19,1.19,0,0,1-1.19-1.19v-4.92a1.19,1.19,0,0,1,1.19-1.19h33.46a1.19,1.19,0,0,1,1.19,1.19Z"/><path class="cls-19" d="M180.53,186.12H159a1.19,1.19,0,1,0,0,2.38h21.57a1.19,1.19,0,1,0,0-2.38Z"/><path class="cls-19" d="M180.53,166.93H159a1.19,1.19,0,0,0,0,2.38h21.57a1.19,1.19,0,0,0,0-2.38Z"/><path class="cls-19" d="M151.83,166.93a1.19,1.19,0,0,0-1.19,1.19,1.2,1.2,0,1,0,2.38,0A1.2,1.2,0,0,0,151.83,166.93Z"/><path class="cls-19" d="M180.53,176.61H159a1.19,1.19,0,1,0,0,2.37h21.57a1.19,1.19,0,1,0,0-2.37Z"/><circle class="cls-19" cx="151.83" cy="177.8" r="1.19"/><circle class="cls-19" cx="151.83" cy="187.31" r="1.19"/><text class="cls-6" transform="translate(148.11 212.29)"><tspan class="cls-14">G</tspan><tspan x="7.81" y="0">o</tspan><tspan class="cls-15" x="14.4" y="0">V</tspan><tspan x="20.7" y="0">elo </tspan><tspan class="cls-20" x="-25.82" y="14.4">G</tspan><tspan class="cls-21" x="-17.98" y="14.4">a</tspan><tspan class="cls-22" x="-12.24" y="14.4">t</tspan><tspan x="-8.34" y="14.4">e</tspan><tspan class="cls-23" x="-2.33" y="14.4">w</tspan><tspan class="cls-24" x="6.46" y="14.4">a</tspan><tspan x="12.14" y="14.4">y &amp; </tspan><tspan class="cls-25" x="30.14" y="14.4">S</tspan><tspan x="36.13" y="14.4">e</tspan><tspan class="cls-26" x="42.14" y="14.4">r</tspan><tspan class="cls-27" x="46.37" y="14.4">v</tspan><tspan x="52.02" y="14.4">er</tspan></text><line class="cls-4" x1="646.59" y1="196.45" x2="646.59" y2="145.04"/><polygon class="cls-5" points="650.29 193.64 646.59 195.21 642.89 193.64 646.59 202.42 650.29 193.64"/><polygon class="cls-5" points="650.29 147.85 646.59 146.27 642.89 147.85 646.59 139.07 650.29 147.85"/><line class="cls-4" x1="646.59" y1="336.31" x2="646.59" y2="284.9"/><polygon class="cls-5" points="650.29 333.5 646.59 335.08 642.89 333.5 646.59 342.28 650.29 333.5"/><polygon class="cls-5" points="650.29 287.71 646.59 286.14 642.89 287.71 646.59 278.94 650.29 287.71"/><path class="cls-19" d="M182.35,496.87H172.7v-4.22a3.64,3.64,0,0,1,7.27,0v1.15a1.13,1.13,0,0,0,2.25,0v-1.15a5.88,5.88,0,0,0-11.76,0v4.22h-.14a3.1,3.1,0,0,0-3.1,3.1v12a3.25,3.25,0,0,0,3.24,3.24h11.75a3.25,3.25,0,0,0,3.25-3.24V500A3.1,3.1,0,0,0,182.35,496.87Zm.86,15.11a1,1,0,0,1-1,1H170.46a1,1,0,0,1-1-1V500a.87.87,0,0,1,.86-.86h12a.86.86,0,0,1,.86.86v12Z"/><path class="cls-19" d="M176.34,501.87a2.32,2.32,0,0,0-1.13,4.35v2.87a1.13,1.13,0,1,0,2.25,0v-2.87a2.32,2.32,0,0,0-1.12-4.35Z"/><path class="cls-19" d="M184.39,492.85a1,1,0,0,0,.42.08,1.11,1.11,0,0,0,1-.7l.84-2.09a1.12,1.12,0,0,0-2.09-.83l-.83,2.08A1.12,1.12,0,0,0,184.39,492.85Z"/><path class="cls-19" d="M185.68,494.24a1.15,1.15,0,0,0,1,.68,1.19,1.19,0,0,0,.44-.09l2.06-.88a1.12,1.12,0,0,0-.88-2.07l-2.07.88A1.13,1.13,0,0,0,185.68,494.24Z"/><path class="cls-19" d="M189.16,496.34l-2.08-.84a1.13,1.13,0,0,0-.84,2.09l2.09.84a1.2,1.2,0,0,0,.42.08,1.12,1.12,0,0,0,.41-2.17Z"/><line class="cls-4" x1="257.26" y1="504.4" x2="206.23" y2="504.4"/><polygon class="cls-5" points="254.45 500.7 256.02 504.4 254.45 508.1 263.23 504.4 254.45 500.7"/><polygon class="cls-5" points="209.03 500.7 207.46 504.4 209.03 508.1 200.26 504.4 209.03 500.7"/><text class="cls-6" transform="translate(143.66 539.46)"><tspan class="cls-28">L</tspan><tspan x="5.5" y="0">ock / Un</tspan><tspan class="cls-28" x="46.71" y="0">L</tspan><tspan x="52.21" y="0">ock</tspan></text><line class="cls-4" x1="597.89" y1="91.04" x2="477.28" y2="91.04"/><polygon class="cls-5" points="595.08 87.33 596.65 91.04 595.08 94.74 603.86 91.04 595.08 87.33"/><path class="cls-4" d="M297.58,141.11V94.67A3.62,3.62,0,0,1,301.21,91h96.43"/><polygon class="cls-5" points="394.83 94.74 396.4 91.04 394.83 87.33 403.61 91.04 394.83 94.74"/><path class="cls-4" d="M490,312.09V186a3.62,3.62,0,0,0-3.63-3.63l-148.81.43"/><polygon class="cls-5" points="340.37 179.07 338.8 182.78 340.39 186.47 331.6 182.8 340.37 179.07"/><path class="cls-19" d="M455.55,99V76.52a5.51,5.51,0,0,0-5.5-5.5H427a3.9,3.9,0,0,0-3.86,3.89V81h5.56v2.46A6.67,6.67,0,0,0,425.38,95v9.34l3.33-2.22v1.31a5.51,5.51,0,0,0,5.51,5.51h23a3.89,3.89,0,0,0,3.85-3.89V99ZM425.38,74.91a1.67,1.67,0,1,1,3.33,0V78.8h-3.33Zm4.44,10.71a4.45,4.45,0,1,1-4.44,4.45A4.45,4.45,0,0,1,429.82,85.62ZM427.6,96.36a6.6,6.6,0,0,0,4.45,0v3.87l-2.23-1.48-2.22,1.48Zm3.34,7.11v-1.31l3.33,2.22V95a6.67,6.67,0,0,0-3.33-11.55V74.91a3.9,3.9,0,0,0-.38-1.67h19.49a3.28,3.28,0,0,1,3.28,3.28v28.57a3.92,3.92,0,0,0,.37,1.67H434.22a3.29,3.29,0,0,1-3.28-3.29Zm27.95,1.62a1.67,1.67,0,1,1-3.34,0v-3.9h3.34Z"/><path class="cls-19" d="M439.83,77.69h10v2.22h-10Z"/><path class="cls-19" d="M439.83,83.4h10v2.22h-10Z"/><path class="cls-19" d="M439.83,89h10v2.22h-10Z"/><path class="cls-19" d="M439.83,94.52h10v2.23h-10Z"/><path class="cls-19" d="M439.83,100.08h10v2.23h-10Z"/><text class="cls-6" transform="translate(405.1 127.9)">Sma<tspan class="cls-29" x="21.71" y="0">r</tspan><tspan x="25.92" y="0">t </tspan><tspan class="cls-30" x="32.44" y="0">c</tspan><tspan x="37.74" y="0">o</tspan><tspan class="cls-23" x="44.33" y="0">n</tspan><tspan x="50.94" y="0">t</tspan><tspan class="cls-31" x="54.91" y="0">r</tspan><tspan x="58.77" y="0">a</tspan><tspan class="cls-32" x="64.56" y="0">c</tspan><tspan x="70.09" y="0">t </tspan></text><path class="cls-19" d="M672.4,84.58a1,1,0,0,0,.52-.87V76.78a1,1,0,0,0-.52-.87L664,71.34a1,1,0,0,0-.49-.13,1,1,0,0,0-.48,1.85l.41.24-4.85,2.61a1,1,0,0,0-.52.87v6l-3.86.45-5.64-3V77.86l5.91-3.18a1,1,0,0,0,.52-.87V68.57l1.12.62a.94.94,0,0,0,.48.13,1,1,0,0,0,.87-.51,1,1,0,0,0-.38-1.34l-9-4.93a1,1,0,0,0-.94,0l-9,4.93a1,1,0,0,0,.49,1.85.91.91,0,0,0,.48-.13l1.12-.62v5.24a1,1,0,0,0,.52.87l5.91,3.18v2.38l-5.64,3-3.86-.45v-6a1,1,0,0,0-.52-.87l-4.85-2.62.41-.23a1,1,0,0,0-.48-1.85,1,1,0,0,0-.49.13l-8.4,4.57a1,1,0,0,0-.52.87v6.93a1,1,0,0,0,.52.87l5.91,3.18v.7l-5.91,3.18a1,1,0,0,0-.52.88v6.92a1,1,0,0,0,.52.88l8.2,4.35a1,1,0,0,0,1.33-.45,1,1,0,0,0-.44-1.32l0,0,4.76-2.56a1,1,0,0,0,.52-.88V93.28l3.93-1,5.57,3v2.39l-5.91,3.18a1,1,0,0,0-.52.87v5.33l-1.23-.61a1,1,0,0,0-1.33.44,1,1,0,0,0-.05.76,1,1,0,0,0,.5.57l9.06,4.78a1,1,0,0,0,.94,0l9.06-4.78a1,1,0,0,0,.5-.57,1,1,0,0,0-.05-.76,1,1,0,0,0-1.33-.44l-1.23.61v-5.33a1,1,0,0,0-.52-.87l-5.91-3.18V95.28l5.57-3,3.93,1v6.16a1,1,0,0,0,.52.88l4.76,2.56,0,0a1,1,0,0,0,.44,1.87,1,1,0,0,0,.45-.1l8.2-4.35a1,1,0,0,0,.52-.88V92.52a1,1,0,0,0-.52-.88l-5.91-3.18v-.7Zm-13.47,6.88-3.93-1V85.18l3.87-.45,5.64,3v.7Zm5.58-10.63v4.68l-4.46-2.4V78.43Zm2,4.68V80.83l4.45-2.4v4.68Zm-1-11.07,4.34,2.34-4.34,2.34-4.35-2.34Zm-16.93,1.17V70.93L653,68.54v4.68Zm-1-11.07,4.35,2.34-4.35,2.34-4.35-2.34Zm-5.44,4,4.45,2.39v4.68l-4.45-2.39ZM647.58,82l4.35,2.34-4.35,2.34-4.35-2.34Zm-11.35,9.5-5.58-3v-.7l5.64-3,3.87.45v5.28Zm-1.12-13v4.68l-4.46,2.4V80.83Zm-5.45-4L634,76.78l-4.35,2.34-4.34-2.34Zm-5.44,4,4.45,2.4v4.68l-4.45-2.4Zm5.44,11.75L634,92.52l-4.35,2.34-4.34-2.34Zm-5.44,4,4.45,2.4v4.68l-4.45-2.4Zm6.43,7.08V96.57l4.46-2.4v4.68ZM642.14,86l4.45,2.4V93l-4.45-2.4Zm4.45,19.82v4.68l-4.45-2.4v-4.68Zm2,4.68v-4.68l4.45-2.4v4.68Zm-1-6.4-4.35-2.34,4.35-2.34,4.35,2.34Zm1-11V88.36L653,86v4.68Zm11.48,1.13,4.46,2.4v4.68l-4.46-2.4Zm6.44,7.08V96.57l4.45-2.4v4.68Zm-1-6.39-4.35-2.34,4.35-2.34,4.34,2.34Z"/><path class="cls-19" d="M659.58,71.13a1,1,0,1,0-.47-.6A1,1,0,0,0,659.58,71.13Z"/><path class="cls-19" d="M660.21,104.56a1,1,0,0,0-.44.11,1,1,0,0,0,.44,1.87.92.92,0,0,0,.44-.1,1,1,0,0,0,.5-.57,1,1,0,0,0,0-.76A1,1,0,0,0,660.21,104.56Z"/><path class="cls-19" d="M635.1,71.26a1.05,1.05,0,0,0,.49-.13,1,1,0,0,0,.46-.6,1,1,0,0,0-.08-.75,1,1,0,0,0-1.35-.38,1,1,0,0,0,.48,1.86Z"/><path class="cls-19" d="M635.39,104.67a1,1,0,0,0-1.33.44,1,1,0,0,0,0,.76,1,1,0,0,0,.5.57.92.92,0,0,0,.44.1,1,1,0,0,0,.88-.55A1,1,0,0,0,635.39,104.67Z"/><text class="cls-6" transform="translate(599.37 128.63)">Blockchain ne<tspan class="cls-33" x="69.43" y="0">t</tspan><tspan class="cls-27" x="73.51" y="0">w</tspan><tspan x="82.22" y="0">o</tspan><tspan class="cls-34" x="88.81" y="0">r</tspan><tspan x="92.78" y="0">k</tspan></text><path class="cls-19" d="M315.8,175.35a18.06,18.06,0,0,0-.6-4.64l2.31-1.7L313,161.26l-2.63,1.15a18,18,0,0,0-8-4.64l-.32-2.85H293.1l-.31,2.85a18.08,18.08,0,0,0-8,4.64l-2.62-1.15L277.65,169l2.31,1.7a18.24,18.24,0,0,0,0,9.28l-2.31,1.69,4.48,7.76,2.62-1.15a18.27,18.27,0,0,0,8,4.64l.31,2.84h8.95l.32-2.84a18.18,18.18,0,0,0,8-4.64l2.63,1.15,4.48-7.76L315.2,180a18.12,18.12,0,0,0,.6-4.64ZM301,190.8l-.84.18-.27,2.4h-4.66L295,191l-.84-.18a15.76,15.76,0,0,1-8.22-4.75l-.58-.63-2.21,1-2.33-4,1.94-1.42-.26-.82a16,16,0,0,1,0-9.5l.26-.82-1.94-1.43,2.33-4,2.21,1,.58-.63a15.69,15.69,0,0,1,8.22-4.75l.84-.19.27-2.39h4.66l.27,2.39.84.19a15.69,15.69,0,0,1,8.22,4.75l.58.63,2.21-1,2.33,4-1.94,1.43.26.82a16,16,0,0,1,0,9.5l-.26.82,1.94,1.42-2.33,4-2.21-1-.58.63A15.76,15.76,0,0,1,301,190.8Z"/><path class="cls-19" d="M292.83,172.61l-1.71-1.68-4.38,4.47,4.47,4.38,1.68-1.71-2.76-2.7Z"/><path class="cls-19" d="M302.33,172.61l2.7,2.76-2.76,2.7,1.68,1.71,4.47-4.38L304,170.93Z"/><path class="cls-19" d="M294.72,183.18l3.4-16.18,2.34.5-3.4,16.17Z"/><text class="cls-6" transform="translate(266.2 212.29)">API <tspan class="cls-35" x="19.14" y="0">G</tspan><tspan class="cls-23" x="26.99" y="0">a</tspan><tspan class="cls-22" x="32.72" y="0">t</tspan><tspan x="36.62" y="0">e</tspan><tspan class="cls-23" x="42.64" y="0">w</tspan><tspan class="cls-24" x="51.42" y="0">a</tspan><tspan x="57.11" y="0">y</tspan></text><line class="cls-4" x1="256.99" y1="175.34" x2="205.96" y2="175.34"/><polygon class="cls-5" points="254.19 171.64 255.76 175.34 254.19 179.04 262.96 175.34 254.19 171.64"/><polygon class="cls-5" points="208.77 171.64 207.2 175.34 208.77 179.04 200 175.34 208.77 171.64"/><path class="cls-4" d="M569,261.4l0-90.88a3.63,3.63,0,0,0-3.63-3.63l-227.81.44"/><polygon class="cls-5" points="340.37 163.62 338.8 167.32 340.38 171.03 331.6 167.34 340.37 163.62"/><path class="cls-4" d="M605.09,372.31l-32.59.83a3.62,3.62,0,0,1-3.63-3.63l0-94.53"/><polygon class="cls-5" points="602.18 368.68 603.85 372.34 602.38 376.08 611.05 372.15 602.18 368.68"/><path class="cls-19" d="M661,239.25V216.8a5.51,5.51,0,0,0-5.5-5.5h-23a3.9,3.9,0,0,0-3.85,3.89v6.12h5.56v2.46a6.67,6.67,0,0,0-3.34,11.55v9.35l3.34-2.23v1.31a5.51,5.51,0,0,0,5.51,5.51h23a3.89,3.89,0,0,0,3.85-3.89v-6.12Zm-30.18-24.06a1.67,1.67,0,0,1,3.34,0v3.89h-3.34Zm4.45,10.71a4.45,4.45,0,1,1-4.45,4.45A4.45,4.45,0,0,1,635.27,225.9Zm-2.22,10.74a6.6,6.6,0,0,0,4.45,0v3.87L635.27,239l-2.22,1.48Zm3.33,7.11v-1.31l3.34,2.23v-9.35a6.67,6.67,0,0,0-3.34-11.55v-8.58a3.89,3.89,0,0,0-.37-1.67H655.5a3.29,3.29,0,0,1,3.28,3.28v28.57a3.92,3.92,0,0,0,.37,1.67H639.67a3.3,3.3,0,0,1-3.29-3.29Zm28,1.62a1.67,1.67,0,0,1-3.34,0v-3.9h3.34Z"/><path class="cls-19" d="M645.28,218h10v2.22h-10Z"/><path class="cls-19" d="M645.28,223.68h10v2.22h-10Z"/><path class="cls-19" d="M645.28,229.24h10v2.22h-10Z"/><path class="cls-19" d="M645.28,234.8h10V237h-10Z"/><path class="cls-19" d="M645.28,240.36h10v2.23h-10Z"/><text class="cls-6" transform="translate(610.55 268.18)">Sma<tspan class="cls-29" x="21.71" y="0">r</tspan><tspan x="25.92" y="0">t </tspan><tspan class="cls-30" x="32.44" y="0">c</tspan><tspan x="37.74" y="0">o</tspan><tspan class="cls-23" x="44.33" y="0">n</tspan><tspan x="50.94" y="0">t</tspan><tspan class="cls-31" x="54.91" y="0">r</tspan><tspan x="58.77" y="0">a</tspan><tspan class="cls-32" x="64.56" y="0">c</tspan><tspan x="70.09" y="0">t </tspan></text><text class="cls-6" transform="translate(602.14 406.45)">3<tspan class="cls-27" x="6.16" y="0">r</tspan><tspan x="9.96" y="0">d pa</tspan><tspan class="cls-29" x="31.88" y="0">r</tspan><tspan class="cls-33" x="36.1" y="0">t</tspan><tspan x="40.17" y="0">y se</tspan><tspan class="cls-36" x="59.13" y="0">r</tspan><tspan x="63.36" y="0">vi</tspan><tspan class="cls-22" x="71.94" y="0">c</tspan><tspan x="77.24" y="0">es</tspan><tspan x="-16.07" y="14.4">(</tspan><tspan class="cls-37" x="-12.66" y="14.4">e</tspan><tspan x="-6.79" y="14.4">.</tspan><tspan class="cls-38" x="-4.31" y="14.4">g</tspan><tspan x="2.22" y="14.4">. insu</tspan><tspan class="cls-31" x="28.08" y="14.4">r</tspan><tspan x="31.94" y="14.4">an</tspan><tspan class="cls-22" x="44.39" y="14.4">c</tspan><tspan x="49.69" y="14.4">e p</tspan><tspan class="cls-27" x="65.07" y="14.4">r</tspan><tspan class="cls-39" x="68.88" y="14.4">o</tspan><tspan x="75.38" y="14.4">vider)</tspan></text><path class="cls-19" d="M665.94,379.58c0-4.33-14.85-4.33-14.85,0,0,0,0,.05,0,.08s0,.06,0,.1v9.55c0,2.39,3.85,3.47,7.43,3.47s7.42-1.08,7.42-3.47v-9.55s0-.06,0-.1S665.94,379.61,665.94,379.58Zm-1.65,9.73c0,.74-2.25,1.82-5.77,1.82s-5.78-1.08-5.78-1.82v-1.06a14.17,14.17,0,0,0,11.55,0Zm0-3.3c0,.64-2.19,1.82-5.77,1.82s-5.78-1.18-5.78-1.82v-.94a14.17,14.17,0,0,0,11.55,0Zm0-3.19c0,.65-2.19,1.83-5.77,1.83s-5.78-1.18-5.78-1.83v-1.11a14.84,14.84,0,0,0,11.55,0Zm-5.77-1.59c-3.75,0-5.78-1.17-5.78-1.65s2-1.65,5.78-1.65,5.77,1.17,5.77,1.65S662.27,381.23,658.52,381.23Z"/><path class="cls-19" d="M648.62,381.23h-2.48V373h8.23c0,.25,0,.51,0,.76a.83.83,0,0,0,1.65.08c0-.28,0-.56,0-.84h6.59c0,.25,0,.5,0,.75a.83.83,0,0,0,1.65.15c0-.57.07-1.15.07-1.73a19,19,0,1,0-19,19c.59,0,1.16,0,1.73-.07a.83.83,0,0,0-.15-1.65l-.75,0v-6.57h2.48a.83.83,0,0,0,0-1.65Zm14-9.9H656a31.26,31.26,0,0,0-1.24-8.25h5.27A17.11,17.11,0,0,1,662.6,371.33Zm-3.7-9.9h-4.69a16.34,16.34,0,0,0-3.49-5.73A17.35,17.35,0,0,1,658.9,361.43Zm-12.76-6.52c2.49.45,4.72,2.92,6.23,6.52h-6.23Zm0,8.17H653a28.76,28.76,0,0,1,1.38,8.25h-8.23Zm-6.23-7.38a16.51,16.51,0,0,0-3.5,5.73h-4.68A17.35,17.35,0,0,1,639.91,355.7Zm-9.33,7.38h5.27a31.26,31.26,0,0,0-1.24,8.25H628A17.11,17.11,0,0,1,630.58,363.08ZM628,373h6.58a31.32,31.32,0,0,0,1.24,8.25h-5.27A17.11,17.11,0,0,1,628,373Zm3.7,9.9h4.68a16.51,16.51,0,0,0,3.5,5.73A17.42,17.42,0,0,1,631.73,382.88Zm12.76,6.52c-2.49-.45-4.72-2.92-6.24-6.52h6.24Zm0-8.17h-6.85a28.88,28.88,0,0,1-1.38-8.25h8.23v8.25Zm0-9.9h-8.23a28.76,28.76,0,0,1,1.38-8.25h6.85v8.25Zm0-9.9h-6.24c1.52-3.6,3.75-6.07,6.24-6.52Z"/><text class="cls-6" transform="translate(552.61 266.66)">H<tspan class="cls-11" x="7.82" y="0">T</tspan><tspan x="14.24" y="0">TPS</tspan></text><path class="cls-40" d="M33.47,574.65c0,2.71-1.64,4.26-3.87,4.26s-3.73-1.75-3.73-4.11,1.57-4.24,3.85-4.24S33.47,572.34,33.47,574.65Zm-6,.12c0,1.65.83,3,2.24,3s2.24-1.33,2.24-3c0-1.53-.76-3-2.23-3S27.43,573.11,27.43,574.77Z"/><path class="cls-40" d="M34.74,570.69h4.67v1.22H36.22v2.23h3v1.2h-3v3.44H34.74Z"/><path class="cls-40" d="M40.85,570.69h4.67v1.22h-3.2v2.23h3v1.2h-3v3.44H40.85Z"/><path class="cls-40" d="M47,570.69h1.48v6.85h3.33v1.24H47Z"/><path class="cls-40" d="M54.35,570.69v8.09H52.87v-8.09Z"/><path class="cls-40" d="M56,578.78v-8.09h1.69l2.08,3.47a21,21,0,0,1,1.38,2.71h0a32.13,32.13,0,0,1-.13-3.35v-2.82h1.36v8.09H60.92l-2.11-3.56a29.59,29.59,0,0,1-1.45-2.79h0c.06,1,.08,2.12.08,3.44v2.9Z"/><path class="cls-40" d="M68.67,575.19h-3v2.37H69v1.22H64.15v-8.09h4.71v1.22H65.63V574h3Z"/><path class="cls-41" d="M34.85,446c0,2.71-1.64,4.26-3.86,4.26s-3.73-1.75-3.73-4.11,1.57-4.24,3.85-4.24S34.85,443.72,34.85,446Zm-6,.12c0,1.64.83,3,2.24,3s2.24-1.33,2.24-3c0-1.53-.76-3-2.23-3S28.82,444.49,28.82,446.15Z"/><path class="cls-41" d="M36.13,450.16v-8.09h1.68l2.09,3.47a23.89,23.89,0,0,1,1.38,2.71h0a32,32,0,0,1-.14-3.35v-2.82h1.37v8.09H41L38.9,446.6a27.41,27.41,0,0,1-1.45-2.79h0c.06,1.05.08,2.12.08,3.44v2.9Z"/><path class="cls-41" d="M44.24,442.07h1.47v6.85H49v1.24h-4.8Z"/><path class="cls-41" d="M51.63,442.07v8.09H50.15v-8.09Z"/><path class="cls-41" d="M53.32,450.16v-8.09H55l2.09,3.47a22.25,22.25,0,0,1,1.37,2.71h0c-.1-1.07-.13-2.11-.13-3.35v-2.82h1.37v8.09H58.2l-2.1-3.56a25.53,25.53,0,0,1-1.45-2.79h0c.06,1.05.08,2.12.08,3.44v2.9Z"/><path class="cls-41" d="M66,446.57h-3v2.37h3.41v1.22H61.43v-8.09h4.71v1.22H62.91v2.07h3Z"/><path class="cls-42" d="M560.89,442.18A13,13,0,0,1,563,442a4,4,0,0,1,2.32.51,1.75,1.75,0,0,1,.83,1.52,1.85,1.85,0,0,1-1.35,1.74v0a2,2,0,0,1,1.64,2,2.14,2.14,0,0,1-.77,1.67,4.62,4.62,0,0,1-3,.74,14.3,14.3,0,0,1-1.81-.1Zm1.46,3.19h.76c1,0,1.59-.48,1.59-1.16s-.57-1.11-1.5-1.11a3.64,3.64,0,0,0-.85.07Zm0,3.71a4.19,4.19,0,0,0,.78,0c1,0,1.8-.35,1.8-1.35s-.83-1.32-1.84-1.32h-.74Z"/><path class="cls-42" d="M567.8,442.07h1.48v6.85h3.32v1.24h-4.8Z"/><path class="cls-42" d="M580.42,446c0,2.71-1.64,4.26-3.86,4.26s-3.73-1.75-3.73-4.11,1.56-4.24,3.84-4.24S580.42,443.72,580.42,446Zm-6,.12c0,1.64.83,3,2.24,3s2.23-1.33,2.23-3c0-1.53-.75-3-2.23-3S574.39,444.49,574.39,446.15Z"/><path class="cls-42" d="M587.5,449.92a5.34,5.34,0,0,1-2.1.36,3.82,3.82,0,0,1-4.13-4.07A4.07,4.07,0,0,1,585.6,442a4.59,4.59,0,0,1,2,.35l-.32,1.18a3.89,3.89,0,0,0-1.58-.32,2.69,2.69,0,0,0-2.83,3,2.64,2.64,0,0,0,2.81,2.91,4.16,4.16,0,0,0,1.61-.3Z"/><path class="cls-42" d="M588.75,442.07h1.47v3.72h0c.19-.31.4-.6.59-.87l2.12-2.85h1.82L592,445.51l3,4.65h-1.73l-2.29-3.71-.72.87v2.84h-1.47Z"/><path class="cls-42" d="M601.23,449.92a5.34,5.34,0,0,1-2.1.36,3.82,3.82,0,0,1-4.13-4.07,4.07,4.07,0,0,1,4.33-4.26,4.59,4.59,0,0,1,2,.35l-.32,1.18a3.89,3.89,0,0,0-1.58-.32,2.69,2.69,0,0,0-2.83,3,2.64,2.64,0,0,0,2.81,2.91,4.16,4.16,0,0,0,1.61-.3Z"/><path class="cls-42" d="M604,442.07v3.24h3.41v-3.24h1.48v8.09h-1.48v-3.57H604v3.57h-1.48v-8.09Z"/><path class="cls-42" d="M612.16,447.87l-.69,2.29H610l2.59-8.09h1.88l2.63,8.09h-1.59l-.73-2.29Zm2.33-1.12-.64-2c-.16-.5-.29-1.05-.41-1.52h0c-.11.48-.24,1-.38,1.52l-.63,2Z"/><path class="cls-42" d="M619.65,442.07v8.09h-1.48v-8.09Z"/><path class="cls-42" d="M621.34,450.16v-8.09H623l2.09,3.47a22.25,22.25,0,0,1,1.37,2.71h0c-.1-1.07-.13-2.11-.13-3.35v-2.82h1.37v8.09h-1.53l-2.11-3.56a25.53,25.53,0,0,1-1.45-2.79h0c.06,1.05.08,2.12.08,3.44v2.9Z"/><path class="cls-43" d="M643.16,552.23h6.53v1.3h-5v4h4.59v1.3h-4.59v5.49h-1.57Z"/><path class="cls-43" d="M653.49,552.23v7.19c0,2.71,1.2,3.85,2.84,3.85s2.95-1.19,2.95-3.85v-7.19h1.58v7.08c0,3.73-2,5.25-4.6,5.25-2.47,0-4.34-1.41-4.34-5.19v-7.14Z"/><path class="cls-43" d="M663.57,552.23h1.57V563h5.19v1.32h-6.76Z"/><path class="cls-43" d="M672.06,552.23h1.58V563h5.19v1.32h-6.77Z"/><path class="cls-43" d="M684.38,552.23h6.53v1.3h-5v4h4.58v1.3H686v5.49h-1.57Z"/><path class="cls-43" d="M693.14,552.23h1.58V563h5.18v1.32h-6.76Z"/><path class="cls-43" d="M711.31,558.17c0,4.17-2.53,6.39-5.63,6.39s-5.45-2.49-5.45-6.16c0-3.84,2.38-6.37,5.62-6.37S711.31,554.57,711.31,558.17Zm-9.42.19c0,2.6,1.41,4.92,3.88,4.92s3.89-2.28,3.89-5c0-2.41-1.26-4.94-3.87-4.94S701.89,555.71,701.89,558.36Z"/><path class="cls-43" d="M715.35,564.36l-3.07-12.13h1.66l1.44,6.14c.35,1.51.68,3,.89,4.19h.05c.19-1.2.57-2.65,1-4.21l1.63-6.12h1.63l1.48,6.15c.34,1.45.66,2.88.85,4.16h0c.24-1.33.58-2.68,1-4.19l1.6-6.12h1.61l-3.44,12.13H722l-1.53-6.31a39.81,39.81,0,0,1-.8-4h0a33.61,33.61,0,0,1-.93,4L717,564.36Z"/><path class="cls-43" d="M732.42,552.39a21.76,21.76,0,0,1,3.33-.26,6.92,6.92,0,0,1,4.92,1.53,5.54,5.54,0,0,1,1.72,4.34,6.43,6.43,0,0,1-1.75,4.72,7.55,7.55,0,0,1-5.37,1.75,25.29,25.29,0,0,1-2.85-.14ZM734,563.13a12,12,0,0,0,1.58.07c3.36,0,5.17-1.86,5.17-5.14,0-2.87-1.61-4.68-4.91-4.68a9.8,9.8,0,0,0-1.84.16Z"/><path class="cls-43" d="M746,552.23v12.13H744.4V552.23Z"/><path class="cls-43" d="M750.68,560.55l-1.26,3.81H747.8l4.12-12.13h1.89L758,564.36h-1.67l-1.3-3.81Zm4-1.23-1.2-3.49c-.26-.79-.45-1.52-.63-2.21h0c-.17.7-.36,1.45-.6,2.19l-1.2,3.51Z"/><path class="cls-43" d="M768.7,563.82a11.13,11.13,0,0,1-3.73.66,5.69,5.69,0,0,1-6.23-6.11c0-3.62,2.5-6.27,6.57-6.27a7.57,7.57,0,0,1,3,.56l-.39,1.28a6.12,6.12,0,0,0-2.68-.52,4.53,4.53,0,0,0-4.88,4.87c0,3.08,1.85,4.9,4.69,4.9a5.06,5.06,0,0,0,2.08-.33v-3.61h-2.45V558h4Z"/><path class="cls-43" d="M771.08,552.39a16.63,16.63,0,0,1,3-.26,5,5,0,0,1,3.52,1,3,3,0,0,1,.95,2.31,3.21,3.21,0,0,1-2.28,3.09v0a3.08,3.08,0,0,1,1.77,2.46,19.59,19.59,0,0,0,.94,3.33h-1.63a16,16,0,0,1-.79-2.9c-.37-1.67-1-2.31-2.44-2.36h-1.48v5.26h-1.57Zm1.57,5.53h1.6c1.67,0,2.74-.92,2.74-2.31,0-1.57-1.14-2.26-2.79-2.26a6.67,6.67,0,0,0-1.55.14Z"/><path class="cls-43" d="M782.82,560.55l-1.25,3.81h-1.63l4.13-12.13H786l4.14,12.13h-1.68l-1.3-3.81Zm4-1.23-1.2-3.49c-.27-.79-.45-1.52-.63-2.21h0c-.17.7-.36,1.45-.6,2.19l-1.2,3.51Z"/><path class="cls-43" d="M802,559c-.1-1.68-.21-3.73-.2-5.23h-.05q-.62,2.12-1.52,4.6l-2.15,5.89h-1.18l-2-5.78c-.57-1.72-1.05-3.27-1.39-4.71h0c0,1.51-.12,3.53-.24,5.35l-.32,5.21h-1.49l.85-12.13h2l2.07,5.87c.5,1.49.9,2.82,1.22,4.09h0c.32-1.23.75-2.57,1.29-4.09l2.16-5.87h2l.75,12.13h-1.54Z"/></svg>