<svg id="Layer_1" data-name="Layer 1" xmlns="http://www.w3.org/2000/svg" viewBox="0 0 841.89 595.28"><defs><style>.cls-1{fill:#fad7e7;}.cls-2,.cls-8{fill:none;stroke-miterlimit:10;}.cls-2{stroke:#58595b;}.cls-3{fill:#58595b;}.cls-4{font-size:12px;fill:#231f20;font-family:MyriadPro-Regular, Myriad Pro;}.cls-5{letter-spacing:-0.02em;}.cls-6{letter-spacing:0.04em;}.cls-7{letter-spacing:0em;}.cls-8{stroke:#231f20;stroke-width:3px;}.cls-9{letter-spacing:0.04em;}.cls-10{letter-spacing:-0.01em;}.cls-11{fill:#010101;}.cls-12{letter-spacing:0.01em;}.cls-13{letter-spacing:-0.03em;}.cls-14{letter-spacing:0.01em;}.cls-15{letter-spacing:0em;}.cls-16{letter-spacing:-0.01em;}.cls-17{letter-spacing:0em;}.cls-18{letter-spacing:-0.01em;}.cls-19{letter-spacing:0.01em;}.cls-20{letter-spacing:0.03em;}.cls-21{letter-spacing:-0.01em;}.cls-22{letter-spacing:0.02em;}.cls-23{letter-spacing:-0.01em;}.cls-24{letter-spacing:-0.01em;}.cls-25{letter-spacing:0.01em;}.cls-26{letter-spacing:0.01em;}.cls-27{fill:#ec008c;}</style></defs><title>Artboard 3</title><rect class="cls-1" y="2.13" width="841.89" height="593.15"/><line class="cls-2" x1="439.49" y1="369.24" x2="439.49" y2="343.37"/><polygon class="cls-3" points="443.19 346.18 439.49 344.61 435.79 346.18 439.49 337.4 443.19 346.18"/><line class="cls-2" x1="439.49" y1="411.75" x2="439.49" y2="390.06"/><polygon class="cls-3" points="443.19 408.94 439.49 410.52 435.79 408.94 439.49 417.72 443.19 408.94"/><text class="cls-4" transform="translate(410.15 384.37)">M<tspan class="cls-5" x="9.65" y="0">Q</tspan><tspan class="cls-6" x="17.62" y="0">T</tspan><tspan x="24.04" y="0">T (Su</tspan><tspan class="cls-7" x="48.48" y="0">b</tspan><tspan x="55.27" y="0">)</tspan></text><path class="cls-8" d="M459.2,472.44H416.81a10.63,10.63,0,0,1-3.7-20.6,1.26,1.26,0,0,0,.81-1.26c0-.26,0-.47,0-.66a9.78,9.78,0,0,1,14.55-8.54,1.26,1.26,0,0,0,1.12.05,1.23,1.23,0,0,0,.71-.87,15.65,15.65,0,0,1,30.9,3.47v.28a1.25,1.25,0,0,0,1,1.24,13.61,13.61,0,0,1-3,26.89Z"/><text class="cls-4" transform="translate(406.99 491.37)">M<tspan class="cls-5" x="9.65" y="0">Q</tspan><tspan class="cls-9" x="17.62" y="0">T</tspan><tspan x="24.04" y="0">T B</tspan><tspan class="cls-10" x="39.05" y="0">r</tspan><tspan x="42.85" y="0">oker</tspan></text><path class="cls-11" d="M327.69,275.16a3.57,3.57,0,0,0-.28-1.37h0l-4-9.52a3.57,3.57,0,0,0-3.3-2.19H294.62a3.56,3.56,0,0,0-3.29,2.19l-4,9.52a3.56,3.56,0,0,0-.27,1.37v4.92a3.61,3.61,0,0,0,.91,2.38,3.56,3.56,0,0,0-.91,2.37v4.76A3.59,3.59,0,0,0,288,292a3.59,3.59,0,0,0-.91,2.38v4.76a3.57,3.57,0,0,0,3.57,3.56h33.46a3.57,3.57,0,0,0,3.57-3.56v-4.76a3.59,3.59,0,0,0-.91-2.38,3.59,3.59,0,0,0,.91-2.38v-4.76a3.56,3.56,0,0,0-.91-2.37,3.61,3.61,0,0,0,.91-2.38Zm-34.16-10a1.16,1.16,0,0,1,1.09-.73h25.53a1.17,1.17,0,0,1,1.1.73l2.67,6.4H290.86Zm31.78,33.92a1.2,1.2,0,0,1-1.19,1.19H290.66a1.19,1.19,0,0,1-1.19-1.19v-4.76a1.19,1.19,0,0,1,1.19-1.19h33.46a1.19,1.19,0,0,1,1.19,1.19Zm0-9.52a1.19,1.19,0,0,1-1.19,1.19H290.66a1.19,1.19,0,0,1-1.19-1.19v-4.76a1.19,1.19,0,0,1,1.19-1.19h33.46a1.2,1.2,0,0,1,1.19,1.19Zm0-9.51a1.2,1.2,0,0,1-1.19,1.19H290.66a1.19,1.19,0,0,1-1.19-1.19v-4.92a1.19,1.19,0,0,1,1.19-1.19h33.46a1.19,1.19,0,0,1,1.19,1.19Z"/><path class="cls-11" d="M321.74,295.54H300.17a1.19,1.19,0,0,0,0,2.38h21.57a1.19,1.19,0,0,0,0-2.38Z"/><path class="cls-11" d="M321.74,276.35H300.17a1.19,1.19,0,0,0,0,2.38h21.57a1.19,1.19,0,1,0,0-2.38Z"/><path class="cls-11" d="M293,276.35a1.19,1.19,0,0,0-1.19,1.19,1.2,1.2,0,1,0,2.38,0A1.19,1.19,0,0,0,293,276.35Z"/><path class="cls-11" d="M321.74,286H300.17a1.19,1.19,0,0,0,0,2.38h21.57a1.19,1.19,0,1,0,0-2.38Z"/><circle class="cls-11" cx="293.04" cy="287.21" r="1.19"/><circle class="cls-11" cx="293.04" cy="296.73" r="1.19"/><text class="cls-4" transform="translate(289.32 321.7)"><tspan class="cls-12">G</tspan><tspan x="7.81" y="0">o</tspan><tspan class="cls-13" x="14.4" y="0">V</tspan><tspan x="20.7" y="0">elo </tspan><tspan class="cls-14" x="-25.82" y="14.4">G</tspan><tspan class="cls-15" x="-17.98" y="14.4">a</tspan><tspan class="cls-16" x="-12.24" y="14.4">t</tspan><tspan x="-8.34" y="14.4">e</tspan><tspan class="cls-17" x="-2.33" y="14.4">w</tspan><tspan class="cls-18" x="6.46" y="14.4">a</tspan><tspan x="12.14" y="14.4">y &amp; </tspan><tspan class="cls-19" x="30.14" y="14.4">S</tspan><tspan x="36.13" y="14.4">e</tspan><tspan class="cls-20" x="42.14" y="14.4">r</tspan><tspan class="cls-21" x="46.37" y="14.4">v</tspan><tspan x="52.02" y="14.4">er</tspan></text><path class="cls-2" d="M438.79,250.52V204.08a3.63,3.63,0,0,1,3.63-3.63h96.43"/><polygon class="cls-3" points="536.04 204.16 537.62 200.45 536.04 196.75 544.82 200.45 536.04 204.16"/><path class="cls-11" d="M596.76,208.39V185.94a5.51,5.51,0,0,0-5.5-5.51h-23a3.9,3.9,0,0,0-3.86,3.9v6.11h5.56v2.47a6.67,6.67,0,0,0-3.33,11.55v9.34l3.33-2.22v1.31a5.51,5.51,0,0,0,5.51,5.51h23a3.89,3.89,0,0,0,3.85-3.9v-6.11Zm-30.17-24.06a1.67,1.67,0,1,1,3.33,0v3.89h-3.33ZM571,195a4.45,4.45,0,1,1-4.44,4.45A4.45,4.45,0,0,1,571,195Zm-2.22,10.74a6.66,6.66,0,0,0,4.45,0v3.87L571,208.16l-2.22,1.49Zm3.34,7.11v-1.31l3.33,2.22v-9.34a6.67,6.67,0,0,0-3.33-11.55v-8.58a3.86,3.86,0,0,0-.38-1.67h19.49a3.28,3.28,0,0,1,3.28,3.28V214.5a3.86,3.86,0,0,0,.37,1.67H575.43a3.28,3.28,0,0,1-3.28-3.28Zm28,1.61a1.67,1.67,0,0,1-3.34,0v-3.89h3.34Z"/><path class="cls-11" d="M581,187.11h10v2.22H581Z"/><path class="cls-11" d="M581,192.82h10V195H581Z"/><path class="cls-11" d="M581,198.38h10v2.22H581Z"/><path class="cls-11" d="M581,203.94h10v2.22H581Z"/><path class="cls-11" d="M581,209.5h10v2.22H581Z"/><text class="cls-4" transform="translate(546.31 237.31)">Sma<tspan class="cls-22" x="21.71" y="0">r</tspan><tspan x="25.92" y="0">t </tspan><tspan class="cls-23" x="32.44" y="0">c</tspan><tspan x="37.74" y="0">o</tspan><tspan class="cls-17" x="44.33" y="0">n</tspan><tspan x="50.94" y="0">t</tspan><tspan class="cls-24" x="54.91" y="0">r</tspan><tspan x="58.77" y="0">a</tspan><tspan class="cls-25" x="64.56" y="0">c</tspan><tspan x="70.09" y="0">t </tspan></text><path class="cls-11" d="M457,284.76a18.12,18.12,0,0,0-.6-4.64l2.31-1.69-4.48-7.75-2.63,1.15a18,18,0,0,0-8-4.64l-.31-2.85h-9l-.31,2.85a18.08,18.08,0,0,0-8,4.64l-2.62-1.15-4.48,7.75,2.31,1.69a18.28,18.28,0,0,0,0,9.29l-2.31,1.69,4.48,7.75L426,297.7a18.08,18.08,0,0,0,8,4.64l.31,2.85h9l.31-2.85a18,18,0,0,0,8-4.64l2.63,1.15,4.48-7.75-2.31-1.69a18.14,18.14,0,0,0,.6-4.65Zm-14.78,15.45-.84.19-.27,2.4h-4.66l-.27-2.4-.84-.19a15.69,15.69,0,0,1-8.22-4.75l-.58-.63-2.21,1-2.33-4,1.94-1.43-.26-.81a16.06,16.06,0,0,1,0-9.51l.26-.81L422,277.77l2.33-4,2.21,1,.58-.63a15.69,15.69,0,0,1,8.22-4.75l.84-.19.27-2.4h4.66l.27,2.4.84.19a15.69,15.69,0,0,1,8.22,4.75l.58.63,2.21-1,2.33,4-1.94,1.43.26.81a16.06,16.06,0,0,1,0,9.51l-.26.81,1.94,1.43-2.33,4-2.21-1-.58.63A15.69,15.69,0,0,1,442.23,300.21Z"/><path class="cls-11" d="M434,282l-1.71-1.68L428,284.82l4.47,4.38,1.68-1.71-2.76-2.71Z"/><path class="cls-11" d="M443.54,282l2.7,2.75-2.76,2.71,1.68,1.71,4.47-4.38-4.38-4.47Z"/><path class="cls-11" d="M435.93,292.6l3.4-16.18,2.34.49-3.4,16.18Z"/><text class="cls-4" transform="translate(407.41 321.7)">API <tspan class="cls-26" x="19.14" y="0">G</tspan><tspan class="cls-17" x="26.99" y="0">a</tspan><tspan class="cls-16" x="32.72" y="0">t</tspan><tspan x="36.62" y="0">e</tspan><tspan class="cls-17" x="42.64" y="0">w</tspan><tspan class="cls-18" x="51.42" y="0">a</tspan><tspan x="57.11" y="0">y</tspan></text><line class="cls-2" x1="398.2" y1="284.76" x2="347.17" y2="284.76"/><polygon class="cls-3" points="395.4 281.05 396.97 284.76 395.4 288.46 404.18 284.76 395.4 281.05"/><polygon class="cls-3" points="349.98 281.05 348.41 284.76 349.98 288.46 341.2 284.76 349.98 281.05"/><path class="cls-27" d="M33.46,552.39a16.66,16.66,0,0,1,3-.26,5,5,0,0,1,3.51,1,3,3,0,0,1,1,2.31,3.21,3.21,0,0,1-2.29,3.09v0A3.11,3.11,0,0,1,40.44,561a21,21,0,0,0,.93,3.33H39.75a15.72,15.72,0,0,1-.8-2.9c-.36-1.67-1-2.31-2.44-2.36H35v5.26H33.46ZM35,557.92h1.6c1.68,0,2.74-.92,2.74-2.31,0-1.57-1.13-2.26-2.79-2.26a6.74,6.74,0,0,0-1.55.14Z"/><path class="cls-27" d="M49.43,558.67H44.72v4.39H50v1.3H43.15V552.23h6.56v1.3h-5v3.84h4.71Z"/><path class="cls-27" d="M54,560.55l-1.25,3.81H51.09l4.13-12.13h1.89l4.14,12.13H59.58l-1.3-3.81Zm4-1.23-1.2-3.49c-.27-.79-.45-1.52-.63-2.21h0c-.17.7-.36,1.45-.6,2.19l-1.2,3.51Z"/><path class="cls-27" d="M63,552.23H64.6V563h5.18v1.32H63Z"/><path class="cls-27" d="M74.38,558.91v1.17H69.94v-1.17Z"/><path class="cls-27" d="M77.7,553.55H74v-1.32h9v1.32H79.28v10.81H77.7Z"/><path class="cls-27" d="M85.91,552.23v12.13H84.33V552.23Z"/><path class="cls-27" d="M98.87,559c-.09-1.68-.2-3.73-.19-5.23h-.05c-.42,1.41-.92,2.94-1.52,4.6L95,564.29H93.78l-2-5.78c-.58-1.72-1-3.27-1.39-4.71h0c0,1.51-.12,3.53-.24,5.35l-.32,5.21H88.32l.84-12.13h2l2.06,5.87c.5,1.49.91,2.82,1.22,4.09h0c.32-1.23.74-2.57,1.29-4.09L98,552.23h2l.76,12.13H99.17Z"/><path class="cls-27" d="M109.39,558.67h-4.71v4.39h5.26v1.3h-6.83V552.23h6.56v1.3h-5v3.84h4.71Z"/><path class="cls-27" d="M126,559c-.1-1.68-.21-3.73-.2-5.23h0q-.63,2.12-1.53,4.6l-2.14,5.89h-1.19l-2-5.78c-.57-1.72-1-3.27-1.38-4.71h0c0,1.51-.12,3.53-.23,5.35l-.33,5.21h-1.49l.85-12.13h2l2.07,5.87c.5,1.49.9,2.82,1.22,4.09h.05c.31-1.23.74-2.57,1.28-4.09l2.16-5.87h2l.75,12.13h-1.54Z"/><path class="cls-27" d="M140.63,558.17c0,4.17-2.54,6.39-5.63,6.39s-5.46-2.49-5.46-6.16c0-3.84,2.38-6.37,5.62-6.37S140.63,554.57,140.63,558.17Zm-9.43.19c0,2.6,1.41,4.92,3.88,4.92s3.89-2.28,3.89-5c0-2.41-1.26-4.94-3.87-4.94S131.2,555.71,131.2,558.36Z"/><path class="cls-27" d="M142.65,564.36V552.23h1.72l3.89,6.13a35.61,35.61,0,0,1,2.17,3.95l0,0c-.15-1.62-.17-3.1-.17-5v-5.08h1.47v12.13h-1.59l-3.86-6.15a39.52,39.52,0,0,1-2.25-4.06l-.06,0c.1,1.53.12,3,.12,5v5.19Z"/><path class="cls-27" d="M156.07,552.23v12.13h-1.58V552.23Z"/><path class="cls-27" d="M161.11,553.55h-3.69v-1.32h9v1.32h-3.71v10.81h-1.58Z"/><path class="cls-27" d="M177.63,558.17c0,4.17-2.53,6.39-5.63,6.39s-5.45-2.49-5.45-6.16c0-3.84,2.38-6.37,5.62-6.37S177.63,554.57,177.63,558.17Zm-9.42.19c0,2.6,1.41,4.92,3.88,4.92s3.89-2.28,3.89-5c0-2.41-1.26-4.94-3.87-4.94S168.21,555.71,168.21,558.36Z"/><path class="cls-27" d="M179.66,552.39a16.54,16.54,0,0,1,3-.26,5,5,0,0,1,3.52,1,3,3,0,0,1,.95,2.31,3.21,3.21,0,0,1-2.29,3.09v0a3.07,3.07,0,0,1,1.78,2.46,19.59,19.59,0,0,0,.94,3.33h-1.63a16.62,16.62,0,0,1-.8-2.9c-.36-1.67-1-2.31-2.43-2.36h-1.49v5.26h-1.56Zm1.56,5.53h1.61c1.67,0,2.74-.92,2.74-2.31,0-1.57-1.14-2.26-2.79-2.26a6.84,6.84,0,0,0-1.56.14Z"/><path class="cls-27" d="M190.92,552.23v12.13h-1.58V552.23Z"/><path class="cls-27" d="M193.64,564.36V552.23h1.73l3.88,6.13a34,34,0,0,1,2.17,3.95l0,0c-.14-1.62-.17-3.1-.17-5v-5.08h1.48v12.13h-1.6l-3.85-6.15a37.84,37.84,0,0,1-2.26-4.06l-.06,0c.1,1.53.12,3,.12,5v5.19Z"/><path class="cls-27" d="M214.74,563.82a11.24,11.24,0,0,1-3.73.66,5.69,5.69,0,0,1-6.23-6.11c0-3.62,2.5-6.27,6.56-6.27a7.63,7.63,0,0,1,3,.56l-.39,1.28a6.14,6.14,0,0,0-2.69-.52,4.53,4.53,0,0,0-4.87,4.87c0,3.08,1.85,4.9,4.68,4.9a5.11,5.11,0,0,0,2.09-.33v-3.61h-2.46V558h4Z"/></svg>