<svg xmlns="http://www.w3.org/2000/svg" viewBox="0 0 200.05 200.05"><defs><style>.cls-1{fill:#fff;}</style></defs><title>linkedin_logo</title><g id="Layer_2" data-name="Layer 2"><g id="Layer_1-2" data-name="Layer 1"><path class="cls-1" d="M185.25,0a14.63,14.63,0,0,1,14.8,14.42v171.2a14.64,14.64,0,0,1-14.8,14.43H14.76A14.6,14.6,0,0,1,0,185.62V14.42A14.6,14.6,0,0,1,14.76,0ZM170.47,170.46V118.11c0-25.71-5.55-45.48-35.59-45.48-14.44,0-24.12,7.91-28.08,15.42h-.4V75H78v95.46h29.63V123.25c0-12.46,2.36-24.52,17.79-24.52,15.23,0,15.42,14.24,15.42,25.31v46.42ZM59.34,75H29.64v95.46h29.7ZM44.5,27.54A17.21,17.21,0,1,0,61.7,44.75,17.2,17.2,0,0,0,44.5,27.54Z"/></g></g></svg>